<svg xmlns="http://www.w3.org/2000/svg" viewBox="0 0 175 50">
<path fill="#465254" d="M145.707 14.91q0-8.355 3.68-11.632Q153.065 0 161.714 0h8.133v4.37h-8.133q-6.454 0-8.843 2.121-2.388 2.121-2.388 8.162v27.25h19.364V50h-24.141zm-29.141 0q0-8.355 3.679-11.632Q123.924 0 132.574 0h8.133v4.37h-8.133q-6.456 0-8.843 2.121-2.39 2.121-2.389 8.162v27.25h19.365V50h-24.141zm-29.142 0q0-8.355 3.68-11.632Q94.781 0 103.431 0h8.134v4.37h-8.134q-6.454 0-8.843 2.121-2.388 2.121-2.388 8.162v27.25h19.365V50H87.424zm-29.141 0q0-8.355 3.68-11.632Q65.641 0 74.29 0h8.133v4.37h-8.133q-6.455 0-8.843 2.121t-2.389 8.162v27.25h19.365V50H58.283zm-29.142 0q0-8.355 3.68-11.632Q36.5 0 45.15 0h8.133v4.37H45.15q-6.455 0-8.844 2.121t-2.388 8.162v27.25h19.365V50H29.14zM0 14.91Q0 6.555 3.68 3.278 7.358 0 16.007 0h8.133v4.37h-8.133q-6.454 0-8.843 2.121-2.388 2.121-2.388 8.162v27.25H24.14V50H0z"/>
</svg>