<svg xmlns="http://www.w3.org/2000/svg" viewBox="0 0 48 48">
<path fill="#000" d="M43.921.48H4.08a3.42 3.42 0 0 0-3.18 2.062 3.4 3.4 0 0 0-.278 1.302v40.312A3.41 3.41 0 0 0 4.08 47.52H43.92a3.41 3.41 0 0 0 3.458-3.364V3.844A3.41 3.41 0 0 0 43.92.48M14.804 39.852H7.748V18.685h7.056zm-3.528-24.131a3.669 3.669 0 1 1 0-7.338 3.694 3.694 0 1 1 0 7.338m28.976 24.131h-7.056v-11.36c0-2.846-1.011-4.704-3.575-4.704A3.88 3.88 0 0 0 26 26.352a4.7 4.7 0 0 0-.235 1.717v11.76h-7.056V18.66h7.056v2.987a7.06 7.06 0 0 1 6.374-3.528c4.704 0 8.114 3.034 8.114 9.549z"/>
</svg>