<svg xmlns="http://www.w3.org/2000/svg" viewBox="0 0 48 48">
<g fill="none">
<path stroke="#afb6af" d="M43.167 1.5c.92 0 1.753.373 2.357.976.603.604.976 1.437.976 2.357v38.334c0 .92-.373 1.754-.976 2.357a3.32 3.32 0 0 1-2.357.976H4.833c-.92 0-1.753-.373-2.357-.976a3.32 3.32 0 0 1-.976-2.357V4.833c0-.92.373-1.753.976-2.357A3.32 3.32 0 0 1 4.833 1.5Z"/>
<path fill="#afb6af" fill-rule="evenodd" d="M10 8h5a1 1 0 0 1 1 1v5a1 1 0 0 1-1 1h-5a1 1 0 0 1-1-1V9a1 1 0 0 1 1-1m12 0h5a1 1 0 0 1 1 1v5a1 1 0 0 1-1 1h-5a1 1 0 0 1-1-1V9a1 1 0 0 1 1-1m12 0h5a1 1 0 0 1 1 1v5a1 1 0 0 1-1 1h-5a1 1 0 0 1-1-1V9a1 1 0 0 1 1-1M10 20h5a1 1 0 0 1 1 1v5a1 1 0 0 1-1 1h-5a1 1 0 0 1-1-1v-5a1 1 0 0 1 1-1m12 0h5a1 1 0 0 1 1 1v5a1 1 0 0 1-1 1h-5a1 1 0 0 1-1-1v-5a1 1 0 0 1 1-1m12 0h5a1 1 0 0 1 1 1v5a1 1 0 0 1-1 1h-5a1 1 0 0 1-1-1v-5a1 1 0 0 1 1-1M10 32h5a1 1 0 0 1 1 1v5a1 1 0 0 1-1 1h-5a1 1 0 0 1-1-1v-5a1 1 0 0 1 1-1m12 0h5a1 1 0 0 1 1 1v5a1 1 0 0 1-1 1h-5a1 1 0 0 1-1-1v-5a1 1 0 0 1 1-1m12 0h5a1 1 0 0 1 1 1v5a1 1 0 0 1-1 1h-5a1 1 0 0 1-1-1v-5a1 1 0 0 1 1-1"/>
</g>
</svg>