<svg xmlns="http://www.w3.org/2000/svg" viewBox="0 0 48 48">
<g fill="#000">
<path d="M43.921.48a3.414 3.414 0 0 1 3.458 3.364v40.312a3.41 3.41 0 0 1-3.458 3.364H4.08A3.41 3.41 0 0 1 .62 44.156V3.844A3.41 3.41 0 0 1 4.08.48ZM23.583 9C15.53 9 9 15.53 9 23.583s6.53 14.584 14.583 14.584h4.794v-2.5h-4.794c-6.673 0-12.083-5.41-12.083-12.084S16.91 11.5 23.583 11.5c6.674 0 12.084 5.41 12.084 12.083a2.5 2.5 0 0 1-5 0V17.75h-2.5v.478a7.095 7.095 0 1 0 1.5 8.919 4.98 4.98 0 0 0 3.5 1.436 5 5 0 0 0 5-5C38.167 15.53 31.637 9 23.583 9"/>
<path d="M19 23.583a4.583 4.583 0 1 0 9.167 0 4.583 4.583 0 0 0-9.167 0"/>
</g>
</svg>