<svg xmlns="http://www.w3.org/2000/svg" viewBox="0 0 48 48">
<path fill="#000" d="M43.921.48a3.414 3.414 0 0 1 3.458 3.364v40.312a3.41 3.41 0 0 1-3.458 3.364H4.08A3.41 3.41 0 0 1 .62 44.156V3.844A3.41 3.41 0 0 1 4.08.48zM18.043 14.747a9.1 9.1 0 0 0-6.308 2.41c-.025.025-.075.05-.1.075l-.051.05-.05.05a.3.3 0 0 0-.076.098 8.73 8.73 0 0 0 .176 12.323l4.815 4.727c.333.333.787.52 1.262.52.474 0 .929-.187 1.261-.52a1.71 1.71 0 0 0 0-2.475l-4.818-4.727a5.283 5.283 0 0 1-.05-7.497c2.134-2.048 5.549-2.037 7.67.025l4.815 4.728a1.795 1.795 0 0 0 2.524 0 1.71 1.71 0 0 0 0-2.477l-4.818-4.726a9.06 9.06 0 0 0-6.252-2.582Zm11.212-1.748-.17.01c-.401.037-.785.208-1.084.51-.34.326-.53.772-.53 1.238s.19.912.53 1.238l4.818 4.726a5.285 5.285 0 0 1 .05 7.498c-2.13 2.04-5.54 2.019-7.643-.05l-4.815-4.727a1.78 1.78 0 0 0-1.262-.52c-.475 0-.93.187-1.262.52-.34.326-.53.772-.53 1.238s.19.911.53 1.237l4.818 4.728c3.455 3.39 9.029 3.44 12.56.173.025-.025.075-.05.1-.074l.051-.05.05-.05a.4.4 0 0 0 .076-.098c3.331-3.466 3.28-8.933-.176-12.3l-4.817-4.726a1.9 1.9 0 0 0-1.121-.512z"/>
</svg>