<svg xmlns="http://www.w3.org/2000/svg" viewBox="0 0 48 48">
<path fill="#000" d="M43.921.48a3.414 3.414 0 0 1 3.458 3.364v40.312a3.41 3.41 0 0 1-3.458 3.364H4.08A3.41 3.41 0 0 1 .62 44.156V3.844A3.41 3.41 0 0 1 4.08.48ZM27.704 7.011A16.887 16.887 0 0 0 7.536 23.53a16.7 16.7 0 0 0 2.352 8.42L7.536 40.7l8.938-2.353a16.74 16.74 0 0 0 8.067 2.117A16.886 16.886 0 0 0 36.34 11.611a16.9 16.9 0 0 0-8.636-4.6m-3.187 2.313a14.112 14.112 0 1 1 0 28.224 14.1 14.1 0 0 1-7.056-1.953l-.517-.305-5.363 1.458 1.412-5.151-.33-.541A14.112 14.112 0 0 1 24.541 9.582Zm-5.221 6.491h-.659a1.53 1.53 0 0 0-1.129.517 4.7 4.7 0 0 0-1.481 3.528 8.2 8.2 0 0 0 1.717 4.352 18.8 18.8 0 0 0 7.197 6.35q1.148.518 2.352.894a5.5 5.5 0 0 0 2.634.164 4.28 4.28 0 0 0 2.846-1.999v-.07a3.7 3.7 0 0 0 .165-1.835c-.118-.188-.377-.282-.8-.494-.423-.211-2.517-1.223-2.893-1.364s-.659-.212-.94.212c-.283.423-1.106 1.458-1.341 1.646-.236.188-.494.212-.918 0a11.8 11.8 0 0 1-3.387-2.093 13 13 0 0 1-2.352-2.917c-.235-.423 0-.658.189-.846.188-.188.423-.494.635-.753q.265-.32.423-.706a.8.8 0 0 0 0-.729c-.118-.211-.988-2.399-1.317-3.128-.33-.729-.682-.729-.941-.729"/>
</svg>