<svg xmlns="http://www.w3.org/2000/svg" viewBox="0 0 48 48">
<path fill="#fff" d="M24 38a2 2 0 0 1 1.986 1.766L26 40v2a2 2 0 0 1-3.986.234L22 42v-2a2 2 0 0 1 2-2m12.422-4.32.204.14.188.166 1.4 1.4a2 2 0 0 1-2.64 2.994l-.188-.166-1.4-1.4a2 2 0 0 1 2.436-3.134m-22.408.306a2 2 0 0 1 .166 2.64l-.166.188-1.4 1.4a2 2 0 0 1-2.994-2.64l.166-.188 1.4-1.4a2 2 0 0 1 2.828 0M24 14a10 10 0 1 1-9.99 10.434L14 24l.01-.434A10 10 0 0 1 24 14m18 8a2 2 0 0 1 .234 3.986L42 26h-2a2 2 0 0 1-.234-3.986L40 22zM8 22a2 2 0 0 1 .234 3.986L8 26H6a2 2 0 0 1-.234-3.986L6 22zm4.22-12.52.204.14.19.166 1.4 1.4a2 2 0 0 1-2.64 2.994l-.188-.166-1.4-1.4A2 2 0 0 1 12.22 9.48m25.994.306a2 2 0 0 1 .166 2.64l-.166.188-1.4 1.4a2 2 0 0 1-2.994-2.64l.166-.188 1.4-1.4a2 2 0 0 1 2.828 0M24 4a2 2 0 0 1 1.986 1.766L26 6v2a2 2 0 0 1-3.986.234L22 8V6a2 2 0 0 1 2-2"/>
</svg>