<svg xmlns="http://www.w3.org/2000/svg" viewBox="0 0 1905 671">
<g fill="none" fill-rule="evenodd">
<path fill="#266072" d="M616 392v224H392V392z"/>
<path fill="#265f72" d="M1064 224v280H784V224z"/>
<path fill="#266072" d="M672 0v280H392V0z"/>
<path fill="#0dae9a" d="M840 112.262v279.907H728V112.262z"/>
<path fill="#0dae9a" d="M616 112.262v279.907H504V112.262z"/>
<path fill="#05aae0" d="M1008 449.4v112H672v-112z"/>
<path fill="#0dae9a" d="M392 616v55h168v-55z"/>
<path fill="#0dae9a" d="M952 626.656v44h112v-44z"/>
<path fill="#266072" d="M280 169.4v280H0v-280z"/>
<path fill="#0dae9a" d="M336 57.4v279.907H224V57.4z"/>
<path fill="#05aae0" d="M336 393.4v112H112v-112z"/>
<path fill="#266072" d="M1456.238 391.1v280h280v-280z"/>
<path fill="#0dae9a" d="M1792.238 448.5v223h113v-223z"/>
<path fill="#0dae9a" d="M1512.238 503.361v109h112v-109z"/>
<path fill="#266072" d="M1568.238 334.84v-280h-280v280z"/>
<path fill="#266072" d="M1905.238 280.288V.131h-240v280.157z"/>
<path fill="#0dae9a" d="M1905.238 224.182V112.157h-128v112.025z"/>
<path fill="#0dae9a" d="M1736.238 391.1V223.062h-168V391.1z"/>
<path fill="#0dae9a" d="M1288.238 503.361v168h112v-168z"/>
<path fill="#0dae9a" d="M1456.238 224.182V.131h-224v224.051z"/>
<path fill="#0dae9a" d="M1176.238 381.444V101.381h-112v280.063z"/>
<path fill="#05aae0" d="M1288.238 297.397V185.334h-224v112.063z"/>
</g>
</svg>