<svg xmlns="http://www.w3.org/2000/svg" viewBox="0 0 1024 513">
<g fill="none">
<path fill="#000" d="M550.015 57.375c0-1.268 3.999-.331 10.557 2.272l.664.265c3.364 1.357 7.355 3.126 11.795 5.239 15.073 7.452 32.091 21.87 43.923 37.26 27.878 36.774 35.333 81.648 20.746 125.226-15.235 45.037-53.486 78.733-100.65 88.453-3.8.76-8.637 1.445-13.45 1.96l-1.155.12c-7.108.72-13.977 1.049-17.163.674-.649-.162 2.755-3.726 7.617-8.262 33.064-30.456 56.728-71.442 67.911-117.775 1.313-5.249 2.101-16.534 2.127-30.902v-1.378q-.002-1.734-.02-3.522c0-23.328-.648-28.026-4.7-41.634-5.51-18.306-14.263-37.584-22.367-48.762-3.241-4.536-5.835-8.586-5.835-9.234m-64.67-3.078c17.992-3.402 18.478-3.24 19.937 1.944.603 2.412 1.066 13.1 1.127 24.364l.005 1.01.002 1.518c-.162 18.63-.972 24.3-4.7 36.936-10.697 35.478-34.523 70.146-65.48 95.418-4.618 3.777-11.365 8.64-18.199 13.268l-1.109.748c-11.271 7.583-22.476 14.335-24.453 14.335-2.27 0-5.997-9.072-10.373-25.597-3.728-13.608-4.215-52.974-.81-64.638 15.72-54.27 53.323-90.234 104.054-99.306"/>
<path fill="#212529" d="M88.679 433.394H32.287l-11.673 26.69H5l48.055-106.763h15.007l48.207 106.764H100.35zm-5.306-12.202-22.89-52.314-22.89 52.314zm89.44-67.871h15.159v93.495h57.453v13.269h-72.612zm117.635 25.166q16.675 0 25.543 8.236t8.868 24.556v48.806h-13.794v-10.677q-3.639 5.644-10.384 8.618Q293.934 461 284.688 461q-13.493 0-21.602-6.558-8.11-6.56-8.11-17.235 0-10.677 7.73-17.159t24.559-6.482h23.042v-2.898q0-9.456-5.458-14.489-5.457-5.033-16.068-5.033-7.126 0-13.947 2.364-6.822 2.364-11.52 6.33l-6.065-10.982q6.216-5.033 14.856-7.702 8.64-2.67 18.343-2.67m-3.335 71.227q8.337 0 14.401-3.737 6.065-3.737 8.793-10.6V424.09H287.87q-18.495 0-18.494 12.507 0 6.1 4.7 9.609 4.699 3.507 13.036 3.508m107.63-71.227q15.312 0 24.331 8.922t9.02 26.157v46.519H413.54v-44.841q0-11.745-5.609-17.692-5.61-5.949-16.069-5.949-11.824 0-18.646 6.94-6.82 6.94-6.821 19.904v41.638h-14.553v-80.836h13.946v12.202q4.397-6.253 11.9-9.609 7.505-3.355 17.054-3.355m136.585-31.572v113.17h-13.946v-12.812q-4.85 6.71-12.28 10.219Q497.676 461 488.732 461q-11.673 0-20.92-5.186-9.247-5.185-14.477-14.565t-5.23-21.582q0-12.202 5.23-21.505 5.23-9.304 14.477-14.49 9.247-5.185 20.92-5.185 8.64 0 15.917 3.279t12.127 9.685v-44.536zm-41.385 101.273q7.58 0 13.795-3.584 6.216-3.585 9.702-10.066 3.487-6.483 3.487-14.87 0-8.39-3.487-14.872t-9.702-9.99q-6.215-3.507-13.795-3.508-7.73 0-13.87 3.508t-9.702 9.99q-3.563 6.483-3.563 14.871 0 8.39 3.563 14.87 3.563 6.483 9.702 10.067 6.14 3.585 13.87 3.584m196.464-69.701q11.976 0 21.45 5.262t14.856 14.642 5.382 21.276-5.382 21.277-14.856 14.718-21.45 5.338-21.526-5.338-14.932-14.718-5.382-21.277 5.382-21.276 14.932-14.642 21.526-5.262M628.347 346q4.851 0 9.096 1.22t7.276 3.508l-4.396 11.134q-5.003-3.813-11.218-3.813-13.037 0-13.037 14.184v7.016h23.345v12.05h-23.042v68.786h-14.553v-68.787h-13.643V379.25h13.643v-7.168q0-12.05 6.974-19.065Q615.765 346 628.347 346m58.06 45.298q-7.731 0-13.87 3.508-6.14 3.508-9.703 9.99t-3.562 14.871q0 8.39 3.562 14.87 3.563 6.483 9.702 10.067 6.14 3.585 13.87 3.584 7.732 0 13.871-3.584t9.627-10.066q3.486-6.483 3.486-14.87 0-8.39-3.486-14.872t-9.627-9.99q-6.14-3.507-13.87-3.508m75.796 1.526q3.79-7.016 11.218-10.677t18.04-3.66v14.184q-1.214-.152-3.336-.152-11.824 0-18.57 7.092t-6.746 20.209v40.265h-14.553v-80.836h13.947zm158.717 40.57h-56.392l-11.673 26.69h-15.614l48.055-106.763h15.007l48.207 106.764h-15.918zm-5.306-12.202-22.89-52.314-22.89 52.314zm46.539-74.277h14.553v113.17h-14.553zm42.294 0H1019v113.17h-14.553z"/>
</g>
</svg>