<svg xmlns="http://www.w3.org/2000/svg" viewBox="0 0 1024 513">
<path fill="#000" d="M302.616 107.93c-1.414.54-5.9.686-18.968.686-10.094 0-17.213.196-17.31.49-.05.245.633.93 1.609 1.47 3.023 1.812 3.12 2.938 3.12 30.66l.05 24.588-2.293 1.959-2.243 1.91 19.944.294c10.923.147 19.944.245 19.992.196.39-.294 1.317-9.11 1.024-9.404-.195-.196-1.365.784-2.633 2.204-3.072 3.526-4.242 3.771-16.335 3.771h-10.045v-26.742h8.972c9.899 0 12.044.49 13.117 2.84.341.784.975 1.274 1.414 1.176.683-.098.83-1.175.975-5.975l.147-5.78-3.121 2.204-3.17 2.204-9.167.196-9.167.147v-11.02c0-6.074.146-11.804.341-12.686l.342-1.665 9.752.196c11.02.196 12.24.539 14.629 4.163 2.096 3.233 2.584 2.596 2.584-3.477 0-6.025.049-5.976-3.56-4.604m25.6 0-1.804.833 1.22.833c2.632 1.812 3.169 2.449 3.608 4.31.39 1.665.78 34.481.585 47.412l-.049 4.604-2.146 1.959c-1.17 1.077-2.048 2.057-1.901 2.155.097.098 3.608.049 7.802-.05l7.607-.244-1.951-2.008-2-2.008-.145-10.874c-.098-5.975.048-11.02.292-11.265.585-.587 3.462.245 5.608 1.715.975.636 4.29 4.31 7.46 8.081 11.898 14.547 11.703 14.302 11.167 15.38-.488.93-.244.979 6.485 1.224 3.852.098 7.12.196 7.168.098.536-.343-.731-1.665-2.438-2.694-2.243-1.273-22.577-24.49-21.943-24.98.098-.097 1.853-1.028 3.901-2.105 7.314-3.82 10.874-9.6 10.191-16.408-.634-5.78-3.754-10.482-8.533-12.882-4.73-2.4-7.46-2.987-14.775-3.085-3.852-.098-8.484-.294-10.289-.49-2.584-.245-3.754-.147-5.12.49m22.138 3.772c7.558 3.233 10.825 12.44 7.363 20.767-1.267 3.086-4.632 5.878-8.387 7.053-3.218.98-7.948 1.371-9.557.735-.731-.294-.829-1.47-.78-8.13.049-4.262.195-10.776.39-14.45l.341-6.71 1.512-.343c2.292-.538 6.534-.049 9.118 1.078m55.394-3.624c-9.167 2.791-13.068 7.444-13.458 16.065-.244 5.485.682 8.718 3.462 11.902 2.389 2.742 5.997 4.653 13.994 7.591 8.777 3.184 12.19 6.074 13.117 11.118.975 5.143-.975 9.453-5.315 11.853-2.292 1.274-3.072 1.47-7.412 1.47-4.047 0-5.363-.245-7.46-1.176-2.828-1.322-5.559-3.722-6.68-5.926-.44-.784-1.122-1.42-1.512-1.42-.634 0-.732.93-.732 4.652v4.604l1.902.49c3.413.93 11.557 2.106 14.482 2.106 3.462 0 9.46-1.518 11.85-2.987 5.997-3.723 8.972-12.05 6.875-19.298-1.61-5.486-5.218-8.424-14.97-12.245-7.265-2.84-10.63-4.75-12.97-7.396-3.95-4.555-3.268-12.342 1.413-16.212 2.78-2.253 6.144-3.183 10.777-2.987 5.315.244 9.167 2.106 11.703 5.681 1.072 1.518 1.999 2.351 2.292 2.057.243-.245.39-2.498.292-5.045l-.146-4.555-3.072-.391c-1.658-.196-5.803-.49-9.216-.637-5.023-.196-6.68-.098-9.216.686m77.141 3.477c0 2.498.195 5.143.39 5.829.342 1.224.39 1.175 2.633-1.42 1.463-1.764 2.926-2.842 4.096-3.184.976-.294 5.072-.49 9.07-.49l7.314-.05.098 17.143c.244 32.767.195 35.608-.634 36.588-.39.538-1.755 1.42-2.974 2.008-1.902.93-2.877 1.861-1.902 1.861h9.508c5.706 0 9.216-.147 9.216-.49 0-.294-.877-.881-1.901-1.322-4.048-1.666-3.755.734-3.755-29.094v-26.693l7.314.049c9.216 0 10.435.343 13.166 3.575 1.17 1.42 2.34 2.45 2.584 2.302.293-.196.488-2.743.488-5.73 0-5.388 0-5.437-1.17-5.094-2.438.784-26.966 1.322-38.522.832-6.486-.293-12.532-.636-13.41-.832L482.84 107zm194.755-4.065c-12.63 3.036-21.114 10.775-24.673 22.53-1.073 3.723-1.268 14.155-.244 17.73 2.535 8.915 8.387 16.261 16.091 20.033 9.655 4.702 20.236 4.75 29.794.049 7.51-3.674 12.58-9.551 15.506-17.877 1.22-3.576 1.365-4.751 1.414-10.678 0-5.975-.146-7.15-1.414-10.824-4.535-13.274-16.384-21.453-30.817-21.257-2.536 0-5.12.147-5.657.294m15.214 4.212c1.902.735 4.096 2.204 6.046 4.016 5.462 5.094 8.192 12.784 8.192 23.461 0 14.057-4.437 22.824-13.75 27.232-3.268 1.568-3.706 1.666-9.607 1.666-6.095 0-6.192-.05-10.045-1.96-8.777-4.359-13.214-13.224-13.214-26.448 0-15.38 5.364-25.028 15.896-28.506 3.999-1.371 12.386-1.077 16.482.539m129.024.882c.097 3.869.341 5.583.731 5.583.342 0 1.317-.98 2.195-2.204 2.438-3.33 3.852-3.771 12.726-3.575l7.51.147.146 26.154c.146 29.339.341 27.918-3.56 29.24-1.999.638-3.169 2.254-1.56 2.156.341-.05 4.681-.098 9.655-.147 6.583-.049 8.923-.245 8.777-.686-.097-.343-1.121-.881-2.194-1.273-1.122-.392-2.292-1.078-2.633-1.519-1.122-1.518-1.317-7.102-.927-30.611l.39-23.657 7.997.147c9.216.196 10.435.587 12.24 3.918.682 1.176 1.511 2.155 1.852 2.155.683 0 1.317-4.457 1.317-9.159 0-2.204-.049-2.253-1.414-1.91-4.925 1.273-46.86 1.224-51.98 0l-1.414-.343zm192.122-4.8c-.732.44-6.144.685-18.871.881-12.678.196-17.944.441-18.09.833-.098.343.39.735 1.12.93 2 .49 2.78 2.254 3.317 7.543.536 5.192.634 44.963.097 47.51-.244 1.126-.878 1.812-2.243 2.498-1.073.539-1.902 1.126-1.902 1.322 0 .392 39.449 1.127 39.839.784.439-.392 1.268-7.837.926-8.62-.243-.686-.731-.392-2.633 1.616-1.414 1.567-3.072 2.743-4.29 3.086-1.22.391-5.901.587-12.045.587h-10.045v-26.742h9.265c10.24 0 11.264.294 13.36 3.232l1.17 1.666.342-1.519c.439-2.106.488-7.298.098-9.697l-.293-1.96-1.56 1.91c-2.487 2.988-3.804 3.282-13.654 3.282h-8.728v-9.11c0-4.996.146-10.677.341-12.637l.342-3.526 9.752.196c11.02.196 12.24.539 14.629 4.163 2.096 3.233 2.584 2.596 2.584-3.477 0-4.8-.098-5.388-.878-5.388-.487 0-1.365.294-1.95.637M0 108.86c0 .392.683.98 1.56 1.372.83.342 1.805 1.126 2.146 1.714.439.784.731 7.15.926 21.404.342 21.208.537 22.824 2.926 27.477 1.463 2.89 5.656 6.808 8.777 8.228 8.387 3.772 16.92 2.89 26.624-2.743 2.487-1.42 4.681-2.644 4.925-2.644.195 0 .195 1.469 0 3.232l-.341 3.233h6.436c3.56 0 6.437-.196 6.437-.392s-.926-.98-2.048-1.714c-1.317-.93-2.194-1.91-2.438-2.988-.244-.882-.341-13.028-.195-26.987l.195-25.42 2-2.204 2.047-2.254h-8.24c-7.51 0-8.29.098-8.095.882.097.539.731.98 1.512 1.029 1.024.147 1.56.636 2.145 2.204.731 1.763.829 5.191.829 24.097v22.09l-1.317 1.567c-1.804 2.106-7.801 5.045-12.483 6.025-5.07 1.028-9.313.587-13.312-1.42-3.364-1.715-5.022-3.38-7.07-7.348l-1.414-2.596v-42.513l2.34-2.008 2.292-2.009H8.582c-6.973 0-8.582.098-8.582.686m85.48 27.184c0 21.11-.147 28.211-.634 29.191-.342.686-1.61 1.763-2.78 2.302-1.17.588-2.145 1.371-2.194 1.812 0 .637 1.219.784 8.192.784 5.218 0 8.143-.196 8.046-.539-.098-.294-1.17-1.077-2.39-1.714-3.608-2.057-3.608-2.057-3.608-24.343v-19.69l4.145 4.115c2.292 2.253 12.434 12.735 22.577 23.265 11.264 11.706 18.822 19.15 19.407 19.15.926 0 .926-1.126 1.073-28.603l.146-28.555 1.706-1.518c.878-.833 2.097-1.518 2.634-1.518.78 0 1.56-.882 1.56-1.813 0-.147-3.706-.244-8.192-.244-6.973 0-8.192.146-8.192.783 0 .441.926 1.176 2.097 1.665 1.706.637 2.34 1.323 3.218 3.184 1.024 2.253 1.073 3.233 1.268 22.334l.146 19.935-1.268-.833c-1.414-.93-35.888-36.685-41.496-43.052-5.851-6.661-5.413-8.523-5.461 23.902m79.384-25.567 2.292 2.35.146 26.498.195 26.498-1.853 1.714c-.975.98-1.804 1.96-1.804 2.155 0 .49 14.434.245 14.872-.196.098-.147-.097-.392-.536-.539s-1.414-.93-2.194-1.763l-1.463-1.47.146-26.105.195-26.155 1.95-2.449c2.195-2.645 2.146-3.33-.048-2.4-.975.392-2.292.441-4.486.05-1.658-.295-4.535-.49-6.388-.49l-3.267-.05zm29.208-1.666c0 .343.732 1.078 1.658 1.666 1.512.93 2.585 3.38 13.507 30.758 6.534 16.36 11.996 29.877 12.142 30.024.731.735 2.78-.49 3.413-2.008 5.754-14.449 23.845-56.521 24.723-57.403.585-.686 1.609-1.42 2.243-1.665s1.17-.833 1.17-1.225c0-.686-1.122-.832-7.656-.832-6.631 0-7.704.146-7.704.832 0 .441.683 1.029 1.56 1.323 1.805.636 2.292 2.057 1.853 5.485-.341 2.89-16.432 43.787-16.969 43.2-.487-.49-16.628-46.677-16.628-47.559 0-.294.683-.833 1.512-1.224.829-.343 1.56-.931 1.56-1.323 0-.588-1.609-.734-8.192-.734-6.241 0-8.192.195-8.192.685m254.05 0c.097.343.829.93 1.609 1.323 2.73 1.322 2.78 1.86 2.926 29.142.049 13.861-.049 25.812-.244 26.547-.244.734-1.073 1.812-1.902 2.449-.829.587-1.511 1.273-1.511 1.469 0 .539 14.58.294 14.726-.245.097-.196-.537-.784-1.414-1.273-.83-.49-1.756-1.519-2.097-2.302-.39-1.029-.488-9.208-.293-27.33l.244-25.861 1.17-1.274c.634-.686 1.61-1.371 2.097-1.518.537-.196.975-.637.975-1.029 0-.637-1.462-.783-8.24-.783-6.388 0-8.192.146-8.046.685m105.862 0c0 .343 1.122 1.519 2.487 2.547 2.584 1.91 3.218 2.792 15.067 22.04l4.974 8.033v11.951c0 7.2-.195 12.294-.536 12.93-.293.54-1.22 1.323-2.048 1.764-.83.44-1.512 1.077-1.512 1.42 0 .882 15.262.882 15.604 0 .097-.343-.195-.735-.683-.881-.536-.196-1.511-.882-2.145-1.617l-1.268-1.322v-25.91l3.95-6.27c7.216-11.411 12.434-18.17 16.627-21.452 4.389-3.38 3.95-3.82-3.9-3.772-7.12 0-7.754.245-5.316 2.205 1.22 1.028 1.317 1.224.78 2.791-.585 1.715-13.653 22.922-14.433 23.412-.488.294-1.512-1.322-8.63-13.42-5.657-9.55-6.194-11.265-3.902-12.735.683-.49 1.268-1.175 1.268-1.616 0-.637-1.317-.783-8.192-.783-6.339 0-8.192.195-8.192.685m193.877-.294c-10.63.147-13.702.294-13.507.784.098.343 1.024.882 2.048 1.127 1.22.293 1.902.832 2.097 1.518 1.024 4.261 1.512 14.645 1.56 32.473.05 21.942-.048 22.775-2.828 23.902-.829.342-1.463.93-1.463 1.273 0 .93 15.41.784 15.702-.098.146-.392-.098-.686-.488-.686s-1.365-.636-2.145-1.518l-1.463-1.518-.049-12.735-.049-12.734h7.997c7.802 0 8.095.049 9.362 1.224.732.686 1.415 1.665 1.61 2.204.146.49.682.93 1.17.93.829 0 .926-.489.731-5.534-.097-3.037-.244-5.828-.292-6.22-.049-.44-1.073.196-2.633 1.567l-2.536 2.204h-15.409l-.195-7.69c-.049-4.26 0-9.844.195-12.49l.342-4.75h8.192c9.46 0 10.58.343 11.849 3.575.487 1.127 1.17 2.058 1.609 2.058.634 0 .78-.833.78-4.604v-4.653l-4.242.146c-2.292.05-10.387.196-17.945.245m146.627.441c0 .392.44.735 1.024.735.732 0 1.317.588 1.902 1.91.78 1.763.878 4.604.878 28.26v26.352l-1.756 1.812c-.975 1.028-1.56 1.861-1.267 1.91 1.219.098 13.312-.196 13.458-.343.097-.147-.537-1.028-1.414-2.057l-1.61-1.861.147-12.93.146-12.98 20.09-.098 20.09-.147v12.539c0 12.93-.244 14.84-2.048 16.114-.585.392-1.024 1.028-1.024 1.371 0 .44 1.658.588 6.778.392 3.755-.098 6.875-.245 6.973-.343s-.634-.98-1.658-1.96l-1.853-1.762v-24.637c0-27.134.244-30.073 2.487-31.15.683-.343 1.365-.93 1.463-1.274.146-.44-1.707-.637-7.51-.637h-7.753l1.95 2.4 1.951 2.351.195 11.51.147 11.462h-40.522l.05-10.923c0-5.975.194-11.51.39-12.195.194-.686 1.072-1.764 1.95-2.302 3.072-1.96 2.243-2.254-5.998-2.254-6.29 0-7.656.147-7.656.735M0 201.235l2.438.05c1.317 0 8.533.293 15.994.685 11.605.588 15.848.588 29.452-.049 8.729-.44 18.578-.637 21.846-.44 19.358.979 35.303 7.444 45.884 18.464 6.34 6.662 9.9 12.882 12.727 22.188 1.317 4.457 1.366 5.045 1.414 16.702.006 1.31.01 2.478.011 3.526v1.13c-.005 4.804-.096 6.798-.483 8.59l-.06.268c-.21.89-.494 1.762-.882 2.943-4.925 14.791-14.238 25.567-28.477 32.865-5.51 2.84-13.507 5.632-19.992 7.052-4.974 1.078-19.895 1.323-33.84.54l-7.998-.442-.341 16.31c-.078 4.82-.157 11.59-.212 18.424l-.014 1.783c-.041 5.347-.067 10.634-.067 14.96v3.646l.001.48v.929c.009 9.699.069 12.762.513 14.863l.043.194.045.19.047.186.05.184.053.182.055.182.057.183.06.184c.103.308.217.628.344.98 1.853 5.388 5.998 9.013 10.338 9.013 1.658 0 1.706.049 1.706 2.547l-.048 2.498-19.798-.098h-1.514l-1.01.002-1.007.003-1.005.003c-9.357.034-18.097.173-20.576.384l-5.266.391v-2.84l.048-2.89H2.39c4.389 0 8.485-3.478 10.582-9.11l1.121-2.939V286.69c-.01-64.39-.11-68.515-.926-70.565-2.097-5.339-5.462-8.326-10.387-9.306L0 206.231zm211.773-3.624 4.681 13.028a3092 3092 0 0 1 9.509 26.596c24.527 69.305 40.96 115.296 41.789 117.01.536 1.127 1.121 2.744 1.316 3.576.634 3.135 7.558 21.747 9.362 25.126 3.365 6.515 8.095 10.776 15.604 14.008l3.462 1.519-.146 2.547-.146 2.546-5.608-.244c-3.013-.127-9.597-.187-16.794-.192h-1.761q-.886 0-1.776.002l-1.187.002c-10.886.027-21.712.168-22.758.384l-1.56.293v-5.534l3.267-2.302c6.485-4.653 7.314-6.563 5.705-12.735-.477-1.88-3.91-11.502-7.866-22.14l-.34-.915-.343-.918-.344-.921-.52-1.386-.348-.925c-.696-1.85-1.396-3.699-2.088-5.513l-1.804-4.8-40.473.147-40.52.147-4.78 13.371c-4.973 13.715-6.29 19.151-6.29 25.323 0 1.763.293 3.967.683 4.897 1.024 2.498 4.291 5.388 8.095 7.2 3.754 1.764 3.51 1.372 3.462 5.878 0 .245-9.802.392-21.846.44l-.91.001c-11.19.007-20.578.138-21.672.233l-.07.008-.022.004c-.585.195-.78-.294-.78-2.302 0-1.666.244-2.645.78-2.94.439-.244 2.536-1.273 4.73-2.301 4.632-2.204 7.363-4.898 10.484-10.237 1.17-1.959 6.144-13.763 11.069-26.204 3.057-7.721 8.311-20.99 13.794-34.818l.61-1.539.305-.77.612-1.543.612-1.543.917-2.313.61-1.539c2.134-5.378 4.235-10.673 6.19-15.59 26.282-66.27 35.644-89.926 37.4-94.481.926-2.45 2.048-5.192 2.486-6.025.732-1.42 1.073-1.616 3.024-1.616zm-8.436 42.71c-.439 0-2.34 4.506-12.922 30.612-4.778 11.852-12.093 29.779-16.189 39.82-4.096 10.09-7.704 19.248-8.094 20.424l-.634 2.106 1.853.294c.993.19 15.98.334 33.612.342h35.093v-1.91c0-.42-.616-2.478-1.82-6.097l-.225-.675c-2.511-7.502-7.297-21.045-14.144-40.052-8.923-24.685-16.384-44.864-16.53-44.864M58.904 209.17c-9.41-.148-12.629.146-15.31 1.517-1.951 1.029-3.268 2.94-2.829 4.115.195.538 0 1.126-.488 1.518-1.365.98-2.389 25.763-2.389 57.893v4.417l.001.686v1.331c.014 18.247.118 20.52.832 22.234l.052.121q.066.151.139.305c.585 1.126 1.61 2.498 2.292 2.987 3.657 2.645 17.75 4.164 27.404 2.988 5.559-.686 12.386-2.84 16.725-5.29 1.658-.881 4.925-3.624 7.363-6.024 4.486-4.555 7.315-9.257 9.46-15.722 4.242-12.686 4.291-32.326.146-45.159-2.974-9.306-7.85-15.82-15.652-21.012-4.34-2.84-7.607-4.163-14.092-5.681-3.609-.833-6.827-1.127-13.654-1.225m350.452-11.217c-1.121.098-5.071.44-8.728.735-7.314.587-20.188 2.987-24.722 4.653-1.61.538-4.194 1.371-5.706 1.763-9.02 2.302-24.186 10.432-33.109 17.78-20.382 16.701-32.28 39.035-35.304 66.268-.975 9.159-.78 23.216.488 31.15 3.462 21.6 11.8 38.743 25.893 53.387 17.164 17.829 38.814 28.065 68.169 32.228 19.895 2.792 54.954 0 78.506-6.318l2.536-.686 4.437-12.979c2.438-7.102 4.584-13.763 4.73-14.743.293-1.616.147-1.86-1.268-2.595-.828-.441-1.609-.735-1.706-.637-.098.098-1.22 1.665-2.585 3.477-7.948 10.874-19.553 19.004-32.231 22.482-12.776 3.526-32.427 4.898-43.545 2.987-13.068-2.253-22.966-6.563-35.157-15.428-4.876-3.575-14.824-13.273-18.968-18.563-10.582-13.518-18.627-30.906-21.358-46.138-1.317-7.25-1.414-23.657-.244-32.326 4.535-32.914 20.48-56.816 45.836-68.718 8.778-4.163 15.702-6.171 25.844-7.494 9.167-1.224 15.068-1.469 21.553-.832 25.015 2.4 43.398 11.902 52.614 27.134 1.902 3.184 1.95 3.184 4.242 3.184h2.34l-.34-4.996c-.195-2.743-.683-7.886-1.073-11.461-.39-3.527-.83-8.18-1.024-10.335-.342-3.967-.342-3.967-1.61-3.477-2.389.881-5.753.44-15.603-2.057-12.093-3.135-23.308-5.437-31.159-6.417-6.193-.783-18.286-1.371-21.748-1.028m532.724.245c-35.011 2.547-63.293 15.575-81.676 37.616-14.824 17.681-22.04 37.86-22.626 63.084-.487 20.523 2.585 35.902 10.387 51.526 11.605 23.314 32.134 40.604 58.758 49.567 7.997 2.694 13.507 3.967 24.576 5.682 18.92 2.938 50.858.832 75.093-4.947 3.608-.833 6.827-1.861 7.12-2.204.292-.343 1.998-4.996 3.803-10.384 1.804-5.339 3.998-11.559 4.876-13.86.878-2.254 1.609-4.213 1.609-4.36 0-.196-.878-.735-1.902-1.225l-1.95-.93-1.024 1.42c-9.85 13.714-20.139 20.963-35.84 25.224-11.703 3.135-31.55 4.213-42.813 2.302-31.793-5.485-61.781-34.97-72.217-71.019-3.023-10.482-4.096-22.383-3.023-34.383 2.34-26.302 10.289-45.404 25.113-60.244 6.826-6.857 12.922-11.217 21.162-15.184 7.022-3.38 12.044-5.045 20.09-6.66 18.286-3.723 37.254-2.254 53.492 4.113 8.338 3.233 14.336 7.053 19.944 12.588 2.828 2.84 8.24 10.236 8.24 11.363 0 .245 1.122.44 2.536.44 2.097 0 2.584-.146 2.584-.88 0-.49-.634-7.299-1.414-15.184l-1.365-14.253-3.365.294c-2.974.294-4.827-.05-16.676-3.037-14.434-3.624-25.6-5.682-35.304-6.514-6.875-.588-9.703-.539-18.188.049m-425.448 5.583c0 2.155.147 2.596.927 2.596 2.39 0 6.436 1.715 8.533 3.625 3.414 3.183 4.389 6.073 4.876 14.595.39 6.857 1.268 104.815 1.268 143.754v18.269l-1.658 3.477c-1.999 4.212-3.51 5.73-7.704 7.69-2.975 1.371-3.17 1.567-3.17 3.135 0 2.644.244 2.742 5.852 2.35 7.168-.49 29.16-.49 35.596.05 2.974.196 5.461.342 5.559.244.097-.097.292-1.224.439-2.497.195-1.715.097-2.4-.44-2.547-.39-.098-1.755-.49-2.974-.833-3.12-.833-6.68-4.506-8.29-8.571-1.218-2.988-1.218-3.037-1.12-24.343.097-45.158 1.267-143.753 1.706-146.006 1.122-6.024 4.437-10.139 9.265-11.608 1.511-.44 3.12-.784 3.608-.784.78 0 .975-.44.975-2.35 0-1.52-.292-2.4-.78-2.597-.39-.147-6.534.05-13.653.49-11.313.686-14.385.686-23.991.05a853 853 0 0 0-12.922-.736h-1.902zm188.416-1.959c-3.803.196-28.086.539-53.93.735l-47.007.343.147 2.35.146 2.4 4.632.54c7.363.93 8.192 1.714 9.509 8.963.487 2.84 1.268 8.326 1.706 12.244 1.95 18.27 2.097 24.098 2.097 92.179v66.611l-1.073 2.302c-2.194 4.653-5.46 7.298-9.898 8.033-2 .294-2.097.391-2.097 2.204 0 3.38-.244 3.33 11.069 2.596 9.655-.588 23.942-.441 34.865.391l4.242.294v-2.645c0-2.302-.146-2.644-1.024-2.644-.536 0-2.243-.49-3.803-1.078-4.096-1.518-6.632-4.75-8.095-10.237-.536-2.008-1.073-74.546-.585-79.59l.293-3.233 18.773.049c28.672 0 33.548.637 38.668 5.192 2 1.714 5.949 8.522 5.949 10.187 0 .294 1.122.54 2.633.54h2.633l-.439-2.94c-.243-1.665-.438-10.922-.487-20.669 0-13.812-.146-17.779-.683-17.926-.341-.147-1.414-.098-2.39.098-1.462.294-1.852.686-2.632 2.743-2.438 6.514-5.51 9.747-10.923 11.559-3.17 1.077-4.291 1.126-27.21 1.322l-23.892.147-.293-2.694c-.146-1.518-.195-7.738-.146-13.812.097-6.073.195-23.363.243-38.448l.098-27.38h26.575c25.161 0 26.722.05 29.891 1.03 6.144 1.91 9.46 6.024 11.46 14.154l.828 3.33h4.974v-29.828l-3.95.098c-2.194.05-7.119.294-10.874.49m49.786-.245c-.39.147-.634 1.176-.634 2.45v2.203l2.975.588c4.974.98 7.997 3.82 10.142 9.404.976 2.547 1.268 20.522 1.95 117.158l.39 52.211-1.12 2.988c-2 5.29-5.413 8.767-9.412 9.6-1.56.294-1.609.44-1.609 2.89v2.546l4.584-.293c2.535-.098 13.214-.196 23.698-.147l19.066.098v-2.253c0-2.107-.098-2.253-1.658-2.596-4.876-1.029-8.972-5.094-10.679-10.433-1.073-3.38-1.073-3.87-.731-45.06.634-84.979 1.268-122.644 2.097-126.023 1.462-5.73 4.144-8.376 10.142-10.04 3.023-.834 3.12-.932 3.267-2.597.244-3.281.683-3.232-14.287-2.35-11.703.685-14.873.685-23.991.048-11.313-.735-13.214-.783-14.19-.392"/>
</svg>