<svg xmlns="http://www.w3.org/2000/svg" viewBox="0 0 1024 513"><path d="M1024 0v299.966l-64.232.034v-42.794H871.96V100.091h-67.663v199.902h-62.34a101 101 0 0 0 14.29-11.568c10.31-10.24 15.463-19.882 20.928-30.13l-57.651-27.722c-2.427 7.228-11.834 34.96-43.397 34.96-33.376 0-45.22-29.843-45.22-61.47v-1.088c.026-9.277.643-32.087 16.084-46.833 4.553-4.521 13.96-11.453 28.829-11.453 28.525 0 38.84 22.595 44.311 35.26l56.737-28.032c-4.543-8.433-8.793-15.664-17.9-25.003-22.46-22.905-53.412-34.364-85.88-34.364-72.519 0-111.062 58.162-111.062 115.418 0 34.752 14.076 70.584 44.045 92.025H504.28a78.5 78.5 0 0 0 7.93-6.444c24.427-23.09 25.16-53.56 25.182-77.637V100.39h-68.276v133.327l-.003.863c-.043 8.634-.673 17.446-8.182 24.621-3.943 3.605-10.93 7.53-21.555 7.53-7.885 0-16.08-2.103-21.539-7.836-7.584-7.225-7.891-16.566-7.891-25.609V100.39h-67.977v126.564l.018.67.037 1.341.018.672.038 1.347.04 1.35c.638 20.71 2.454 42.363 22.002 61.215a70 70 0 0 0 7.922 6.448H0V0zM270.93 140.297l-36.608 7.848c-.198.04-.13.207-.13.207l.505 1.87.1-.005.02-.001h.078a.97.97 0 0 1 .789.455l.547 3.011c.006.04.04.202.228.202h1.61v.879q.007.079.08.082l.238.003c.113 0 .12.112.12.221 0 .136.061.858.57 1.294.068.065.037.238-.106.238h-.174c-.126 0-.133.089-.096.157q.064.216.055.442v.409c0 .068.007.13.082.13h.09c.017 0 .05.01.05.06v20.485a8 8 0 0 1-.19.195l-.104.105a.1.1 0 0 0-.034.075v.343c0 .028-.007.062-.02.075a.14.14 0 0 1-.079.024h-.256a.09.09 0 0 0-.085.085l-.001.517-.003 2.135h-2.877v4.89h-2.881v4.942l76.97.007v-4.943h-2.884v-4.892h-2.867v-2.138l-.011-.001.001-.517c0-.044-.034-.085-.079-.085h-.256a.14.14 0 0 1-.078-.024.14.14 0 0 1-.024-.075v-.343q.003-.038-.034-.075l-.297-.3V157.8c0-.051.03-.06.046-.062h.087c.068 0 .082-.058.082-.132v-.406q.001-.226.061-.442c.048-.068.035-.153-.095-.153h-.167c-.157 0-.178-.177-.11-.239.512-.418.564-1.14.564-1.283 0-.123-.007-.235.133-.235l.228-.003.03-.007a.08.08 0 0 0 .049-.075l-.001-.88 1.619.001a.19.19 0 0 0 .205-.156l.546-3.003c.314-.585.925-.504.925-.504l-.014-.003h.092l.509-1.866s.068-.17-.13-.21zm-20.859 13.587v.879q.004.079.082.082l.229.003c.12 0 .126.112.126.221 0 .136.068.858.57 1.294.068.065.04.238-.11.238h-.17c-.136 0-.14.089-.102.157q.067.216.061.442v.409c0 .068.004.13.085.13h.089c.017 0 .051.01.051.06v20.485l-.297.3a.1.1 0 0 0-.034.075v.343c0 .028-.007.062-.027.075q-.02.024-.079.024h-.249a.09.09 0 0 0-.085.085l-.001.517h-6.557l.001-.517c0-.044-.034-.085-.079-.085h-.262c-.024 0-.058-.007-.072-.024a.1.1 0 0 1-.027-.075v-.343a.1.1 0 0 0-.028-.075l-.3-.3V157.8c0-.051.029-.06.043-.062h.083c.075 0 .089-.058.089-.132v-.406c0-.112.014-.36.068-.442.031-.068.024-.153-.102-.153h-.167c-.164 0-.178-.177-.106-.239.505-.418.556-1.14.556-1.283 0-.123-.007-.235.133-.235l.229-.003.033-.007a.08.08 0 0 0 .052-.075v-.88zm12.008 0v.879q0 .079.068.082l.24.003c.109 0 .115.112.115.221 0 .136.069.858.574 1.294.068.065.034.238-.11.238h-.167c-.13 0-.136.089-.102.157q.067.216.061.442v.409c0 .068.007.13.086.13h.09c.016 0 .046.01.046.06v20.485l-.297.3a.14.14 0 0 0-.027.075v.343c0 .028-.007.062-.027.075a.14.14 0 0 1-.082.024h-.256c-.045 0-.075.041-.075.085l-.001.517h-6.564v-.517c0-.044-.033-.085-.074-.085h-.26a.1.1 0 0 1-.068-.024.1.1 0 0 1-.027-.075v-.343q.002-.038-.034-.075l-.308-.3V157.8c0-.051.037-.06.055-.062h.079c.081 0 .088-.058.088-.132v-.406c0-.112.017-.36.065-.442.048-.068.034-.153-.099-.153h-.17c-.16 0-.178-.177-.103-.239.512-.418.563-1.14.563-1.283 0-.123-.007-.235.123-.235l.236-.003.031-.008q.042-.018.047-.074v-.88zm11.991 0v.879q.007.079.082.082l.239.003c.106 0 .113.112.113.221 0 .136.068.858.573 1.294.068.065.041.238-.102.238h-.174c-.133 0-.137.089-.1.157q.066.216.059.442v.409c0 .068.007.13.075.13h.098c.017 0 .052.01.052.06v20.485l-.304.3a.1.1 0 0 0-.034.075v.343c0 .028-.003.062-.017.075a.14.14 0 0 1-.079.024h-.256c-.04 0-.081.041-.081.085l-.001.517h-6.56v-.517c0-.044-.034-.085-.078-.085h-.26a.1.1 0 0 1-.078-.024.12.12 0 0 1-.02-.075v-.343q.002-.038-.035-.075l-.29-.3v-20.406a.3.3 0 0 1-.007-.078c0-.051.033-.06.05-.062h.087c.065 0 .078-.058.078-.132v-.406c-.002-.15.021-.3.068-.442.035-.068.024-.153-.102-.153h-.164a.141.141 0 0 1-.112-.239c.515-.418.566-1.14.566-1.283 0-.123-.007-.235.123-.235l.239-.003.032-.008q.041-.018.046-.074v-.88zm12.004 0v.879q.007.079.076.082l.242.003c.11 0 .116.112.116.221 0 .136.065.858.567 1.294.068.065.04.238-.102.238h-.171c-.13 0-.143.089-.102.157q.065.216.058.442v.409c0 .068.013.13.085.13h.087c.017 0 .05.01.05.06a.3.3 0 0 0 .006.079v20.406l-.304.3a.1.1 0 0 0-.03.075v.343c0 .028 0 .062-.028.075q-.017.024-.071.024h-.263c-.038 0-.068.041-.068.085l-.001.517h-6.567v-.517c0-.044-.037-.085-.078-.085h-.256q-.055 0-.082-.024a.3.3 0 0 1-.024-.075v-.343a.1.1 0 0 0-.027-.075c-.034-.027-.205-.208-.3-.3V157.8c0-.051.032-.06.048-.062h.078c.085 0 .088-.058.088-.132v-.406c-.001-.15.022-.3.069-.442.034-.068.034-.153-.103-.153h-.17c-.157 0-.178-.177-.096-.239.505-.418.553-1.14.553-1.283 0-.123 0-.235.13-.235l.239-.003.03-.008q.038-.018.038-.074l-.001-.88zm11.995 0v.879c0 .05.045.082.086.082l.239.003c.109 0 .116.112.116.221 0 .136.061.858.566 1.294.072.065.051.238-.106.238h-.17c-.127 0-.133.089-.092.157q.065.216.058.442v.409c0 .068.006.13.078.13h.094c.015 0 .046.01.046.06v20.485l-.297.3c-.014.017-.034.04-.034.075v.343c0 .028-.007.062-.027.075q-.024.024-.075.024h-.256c-.048 0-.09.041-.09.085v.517h-6.55v-.517c0-.044-.04-.085-.074-.085h-.26q-.059 0-.078-.024a.1.1 0 0 1-.028-.075v-.343q.004-.038-.034-.075l-.297-.3V157.8c0-.051.035-.06.052-.062h.085c.068 0 .075-.058.075-.132v-.406c0-.112.027-.36.072-.442.034-.068.02-.153-.103-.153h-.167c-.157 0-.174-.177-.102-.239.512-.418.563-1.14.563-1.283 0-.123-.007-.235.126-.235l.239-.003.027-.007a.09.09 0 0 0 .051-.075v-.88zm-27.098-52h-.02s-.366.495-.366.614v.265c0 .089.027.11.089.11.095 0 .123.19-.055.19a.273.273 0 0 0-.276.248c0 .082-.007.086-.007.15 0 .116-.703.91-1.4 1.464a.5.5 0 0 1-.249.123h-.215a.1.1 0 0 0-.095.095v.395a.1.1 0 0 0 .095.099h.168c.071.017.13.102.13.292 0 .184-.049.27-.11.3h-.188a.1.1 0 0 0-.095.095v.392c0 .05.048.099.095.099h.014q.03.006.048.006c.092 0 .205-.02.205.12v4.085c-.12.058-.277.17-.277.364v.33c0 .085-.072.222-.225.222h-.625c-.136 0-.229.105-.229.204v.664c0 .061.079.146.171.143.318-.01.533.081.533.313l-.007.252c0 .214-.215.31-.454.391-.458.16-1.512.443-1.54 1.178-1.74.807-4.89 2.533-7.16 5.938-2.553 3.477-2.65 8.121-2.656 9.729v.29q-.001.123-.004.194c-.007.163-.123.262-.249.262h-.334c-.147 0-.147.126-.147.126v.58c-.002.031-.018.128-.144.128h-.578c-.03.004-.135.023-.135.157v.616s.007.126-.16.126h-.576c-.034.003-.151.023-.151.16v.66c0 .075.047.09.099.096.17.024.518.18.518.558 0 .647.396.705.557.705v2.383c0 .558-.437.776-.683.834-.048.01-.116.068-.116.136v2.452l16.787-3.694h.02l16.787 3.694v-2.452c0-.068-.075-.126-.123-.136-.246-.058-.676-.276-.676-.83v-2.384c.16 0 .557-.064.557-.708 0-.378.348-.534.512-.558.058-.007.102-.02.102-.095v-.66c0-.138-.12-.158-.155-.16h-.586c-.125 0-.14-.088-.143-.118v-.622c0-.137-.113-.156-.145-.16h-.572c-.134 0-.149-.102-.15-.132v-.576s0-.126-.143-.126h-.338c-.116 0-.24-.099-.25-.259v-.62c-.009-1.721-.173-6.21-2.648-9.593-2.284-3.404-5.427-5.134-7.161-5.94-.034-.74-1.09-1.019-1.547-1.179-.245-.081-.454-.177-.454-.391l-.006-.252c0-.232.211-.323.525-.313.103.003.171-.082.171-.143v-.667c0-.096-.085-.201-.222-.201h-.625c-.153 0-.225-.137-.225-.222v-.33c0-.197-.15-.306-.27-.364v-4.085c0-.137.106-.12.199-.12a.2.2 0 0 0 .047-.006h.01a.103.103 0 0 0 .103-.103v-.388a.1.1 0 0 0-.102-.095h-.185c-.065-.034-.109-.116-.109-.3q.007-.272.137-.292h.157c.055 0 .1-.044.102-.1v-.394a.1.1 0 0 0-.102-.095h-.212a.5.5 0 0 1-.25-.126c-.696-.552-1.399-1.345-1.399-1.464v-.147a.273.273 0 0 0-.273-.248c-.188 0-.16-.19-.065-.19.069 0 .082-.021.082-.11v-.265c0-.12-.358-.613-.358-.613M21.792 356.129V412h15.072v-55.872h20.544v-12.672H1.248v12.672zm42.048-12.672V412h13.632v-26.016q0-7.584 2.496-10.896t8.064-3.312q4.896 0 6.816 3.024t1.92 9.168V412H110.4v-30.528q0-4.608-.816-8.4t-2.832-6.432-5.52-4.128-8.976-1.488q-3.84 0-7.872 1.968t-6.624 6.288h-.288v-25.824zm90.336 38.4H132q.096-1.44.624-3.264t1.824-3.456 3.456-2.736 5.424-1.104q4.992 0 7.44 2.688t3.408 7.872M132 390.496h35.808q.384-5.76-.96-11.04t-4.368-9.408-7.728-6.576-11.04-2.448q-5.664 0-10.32 2.016t-8.016 5.52-5.184 8.304-1.824 10.368q0 5.76 1.776 10.56t5.04 8.256 7.968 5.328 10.56 1.872q8.448 0 14.4-3.84t8.832-12.768h-12q-.672 2.304-3.648 4.368t-7.104 2.064q-5.76 0-8.832-2.976t-3.36-9.6m87.072-19.296v-16.032h14.112q2.016 0 3.888.336t3.312 1.2 2.304 2.4.864 3.936q0 4.32-2.592 6.24t-6.624 1.92zM204 343.456V412h33.216a35 35 0 0 0 8.976-1.152q4.368-1.152 7.776-3.552t5.424-6.192 2.016-8.976q0-6.432-3.12-10.992t-9.456-6.384q4.608-2.208 6.96-5.664t2.352-8.64q0-4.8-1.584-8.064t-4.464-5.232-6.912-2.832-8.928-.864zm15.072 56.832v-18.816h16.416q4.896 0 7.872 2.256t2.976 7.536q0 2.688-.912 4.416t-2.448 2.736-3.552 1.44a20 20 0 0 1-4.224.432zm50.496-22.656q.288-4.8 2.4-7.968a16.34 16.34 0 0 1 5.376-5.088q3.264-1.92 7.344-2.736a42 42 0 0 1 8.208-.816q3.744 0 7.584.528t7.008 2.064 5.184 4.272 2.016 7.248v25.824q0 3.36.384 6.432t1.344 4.608h-13.824a20 20 0 0 1-.624-2.352 21 21 0 0 1-.336-2.448q-3.264 3.36-7.68 4.704a30.8 30.8 0 0 1-9.024 1.344q-3.552 0-6.624-.864t-5.376-2.688-3.6-4.608-1.296-6.624q0-4.224 1.488-6.96t3.84-4.368 5.376-2.448a57 57 0 0 1 6.096-1.296q3.072-.48 6.048-.768t5.28-.864 3.648-1.68 1.248-3.216q0-2.208-.72-3.504t-1.92-2.016-2.784-.96a23 23 0 0 0-3.408-.24q-4.032 0-6.336 1.728t-2.688 5.76zm31.488 10.08q-.864.768-2.16 1.2a22 22 0 0 1-2.784.72q-1.488.288-3.12.48a57 57 0 0 0-3.264.48 25 25 0 0 0-3.024.768q-1.488.48-2.592 1.296a6.16 6.16 0 0 0-1.776 2.064q-.672 1.248-.672 3.168 0 1.824.672 3.072a5.15 5.15 0 0 0 1.824 1.968q1.152.72 2.688 1.008t3.168.288q4.032 0 6.24-1.344t3.264-3.216 1.296-3.792.24-3.072zm24.192-25.344V412h13.632v-22.368q0-3.36.672-6.24t2.256-5.04 4.176-3.408 6.336-1.248q1.248 0 2.592.144t2.304.336v-12.672q-1.632-.48-2.976-.48-2.592 0-4.992.768a18.3 18.3 0 0 0-4.512 2.16 17 17 0 0 0-3.744 3.36 16.8 16.8 0 0 0-2.592 4.272h-.192v-9.216zm54.624 0v-14.88H366.24v14.88h-8.256v9.12h8.256v29.28q0 3.744 1.248 6.048t3.408 3.552 4.992 1.68 6 .432q2.016 0 4.128-.096a32 32 0 0 0 3.84-.384v-10.56q-.96.192-2.016.288t-2.208.096q-3.456 0-4.608-1.152t-1.152-4.608v-24.576h9.984v-9.12zm16.896-18.912V412H410.4v-68.544zm57.792 38.4h-22.176q.096-1.44.624-3.264t1.824-3.456 3.456-2.736 5.424-1.104q4.992 0 7.44 2.688t3.408 7.872m-22.176 8.64h35.808q.384-5.76-.96-11.04t-4.368-9.408-7.728-6.576-11.04-2.448q-5.664 0-10.32 2.016t-8.016 5.52-5.184 8.304-1.824 10.368q0 5.76 1.776 10.56t5.04 8.256 7.968 5.328 10.56 1.872q8.448 0 14.4-3.84t8.832-12.768h-12q-.672 2.304-3.648 4.368t-7.104 2.064q-5.76 0-8.832-2.976t-3.36-9.6m61.152-28.128v-14.88h-13.632v14.88h-8.256v9.12h8.256v29.28q0 3.744 1.248 6.048t3.408 3.552 4.992 1.68 6 .432q2.016 0 4.128-.096a32 32 0 0 0 3.84-.384v-10.56q-.96.192-2.016.288t-2.208.096q-3.456 0-4.608-1.152t-1.152-4.608v-24.576h9.984v-9.12zm33.792 0v-14.88h-13.632v14.88h-8.256v9.12h8.256v29.28q0 3.744 1.248 6.048t3.408 3.552 4.992 1.68 6 .432q2.016 0 4.128-.096a32 32 0 0 0 3.84-.384v-10.56q-.96.192-2.016.288t-2.208.096q-3.456 0-4.608-1.152t-1.152-4.608v-24.576h9.984v-9.12zM11.764 492.56v-37.672h10.88q4.488 0 7.548 1.258t4.998 3.672 2.788 5.848q.85 3.435.85 7.786 0 4.488-.918 7.65t-2.346 5.27-3.23 3.332-3.638 1.87-3.468.816-2.72.17zm-6.46-43.112V498h16.66q6.052 0 10.472-1.7t7.276-4.93 4.216-7.956 1.36-10.846q0-11.696-6.052-17.408t-17.272-5.712zm71.332 27.608H56.44q.135-2.04.884-3.842a10.3 10.3 0 0 1 2.04-3.162 9.3 9.3 0 0 1 3.094-2.142q1.802-.782 4.046-.782 2.176 0 3.978.782a10 10 0 0 1 3.128 2.108q1.326 1.326 2.108 3.162.781 1.836.918 3.876m5.576 9.792H76.5q-.748 3.468-3.094 5.168t-6.018 1.7q-2.856 0-4.964-.952t-3.468-2.55a9.9 9.9 0 0 1-1.972-3.672 14 14 0 0 1-.544-4.386h26.316q.136-3.196-.578-6.732a19.5 19.5 0 0 0-2.584-6.528q-1.87-2.992-4.964-4.93t-7.786-1.938q-3.605 0-6.63 1.36a15.6 15.6 0 0 0-5.236 3.808q-2.21 2.448-3.434 5.78t-1.224 7.344q.135 4.012 1.19 7.412t3.162 5.848 5.202 3.808 7.31 1.36q5.985 0 9.928-2.992 3.945-2.992 5.1-8.908M104.584 498l12.852-35.156h-6.052l-9.588 29.308h-.136l-9.86-29.308h-6.46L98.396 498zm42.568-20.944h-20.196q.135-2.04.884-3.842a10.3 10.3 0 0 1 2.04-3.162 9.3 9.3 0 0 1 3.094-2.142q1.802-.782 4.046-.782 2.176 0 3.978.782a10 10 0 0 1 3.128 2.108q1.326 1.326 2.108 3.162.781 1.836.918 3.876m5.576 9.792h-5.712q-.748 3.468-3.094 5.168t-6.018 1.7q-2.856 0-4.964-.952t-3.468-2.55a9.9 9.9 0 0 1-1.972-3.672 14 14 0 0 1-.544-4.386h26.316q.136-3.196-.578-6.732a19.5 19.5 0 0 0-2.584-6.528q-1.87-2.992-4.964-4.93t-7.786-1.938q-3.604 0-6.63 1.36a15.6 15.6 0 0 0-5.236 3.808q-2.21 2.448-3.434 5.78t-1.224 7.344q.135 4.012 1.19 7.412t3.162 5.848 5.202 3.808 7.31 1.36q5.985 0 9.928-2.992 3.945-2.992 5.1-8.908m6.868-37.4V498h5.78v-48.552zm18.972 31.008q0-3.195.85-5.678t2.346-4.182a10 10 0 0 1 3.502-2.584 10.4 10.4 0 0 1 4.25-.884q2.244 0 4.25.884a10 10 0 0 1 3.502 2.584q1.496 1.7 2.346 4.182t.85 5.678-.85 5.678-2.346 4.148a10.2 10.2 0 0 1-3.502 2.55q-2.006.885-4.25.884-2.244 0-4.25-.884a10.2 10.2 0 0 1-3.502-2.55q-1.496-1.665-2.346-4.148t-.85-5.678m-6.12 0q0 3.876 1.088 7.208t3.264 5.814q2.175 2.482 5.372 3.876t7.344 1.394q4.215 0 7.378-1.394 3.162-1.394 5.338-3.876t3.264-5.814 1.088-7.208-1.088-7.242-3.264-5.848q-2.175-2.482-5.338-3.91-3.162-1.428-7.378-1.428-4.147 0-7.344 1.428-3.195 1.428-5.372 3.91t-3.264 5.848-1.088 7.242m41.14-17.612v48.552h5.78v-18.088h.136a9.3 9.3 0 0 0 2.346 2.618q1.394 1.054 2.958 1.666t3.162.884 2.89.272q4.012 0 7.038-1.428t5.032-3.91 2.992-5.814.986-7.072-1.02-7.072-3.026-5.882-5.032-4.046-7.106-1.496q-3.672 0-6.732 1.326-3.06 1.325-4.488 4.25h-.136v-4.76zm27.2 17.272q0 2.584-.544 5.032t-1.768 4.352a9.3 9.3 0 0 1-3.23 3.06q-2.005 1.156-4.998 1.156t-5.1-1.122q-2.108-1.122-3.434-2.958-1.326-1.835-1.938-4.25a20.3 20.3 0 0 1-.612-4.998q0-2.448.578-4.828t1.87-4.25a9.95 9.95 0 0 1 3.332-3.026q2.04-1.155 4.964-1.156 2.789 0 4.862 1.088a9.66 9.66 0 0 1 3.4 2.924q1.326 1.836 1.972 4.182t.646 4.794m12.92-17.272V498h5.78v-21.896q0-1.02.51-2.55t1.632-2.958 2.924-2.448 4.318-1.02q1.972 0 3.23.578t2.006 1.632 1.054 2.482.306 3.128V498h5.78v-21.896q0-4.08 2.448-6.528t6.732-2.448q2.108 0 3.434.612t2.074 1.666q.749 1.054 1.02 2.482.272 1.428.272 3.06V498h5.78v-25.772q0-2.72-.85-4.658t-2.38-3.162-3.672-1.802-4.794-.578q-3.468 0-6.358 1.564t-4.658 4.42q-1.088-3.264-3.74-4.624t-5.916-1.36q-7.412 0-11.356 5.984h-.136v-5.168zm82.416 14.212h-20.196q.135-2.04.884-3.842a10.3 10.3 0 0 1 2.04-3.162 9.3 9.3 0 0 1 3.094-2.142q1.802-.782 4.046-.782 2.176 0 3.978.782a10 10 0 0 1 3.128 2.108q1.326 1.326 2.108 3.162.781 1.836.918 3.876m5.576 9.792h-5.712q-.748 3.468-3.094 5.168t-6.018 1.7q-2.856 0-4.964-.952t-3.468-2.55a9.9 9.9 0 0 1-1.972-3.672 14 14 0 0 1-.544-4.386h26.316q.135-3.196-.578-6.732a19.5 19.5 0 0 0-2.584-6.528q-1.87-2.992-4.964-4.93t-7.786-1.938q-3.605 0-6.63 1.36a15.6 15.6 0 0 0-5.236 3.808q-2.21 2.448-3.434 5.78t-1.224 7.344q.135 4.012 1.19 7.412t3.162 5.848 5.202 3.808 7.31 1.36q5.985 0 9.928-2.992 3.945-2.992 5.1-8.908m6.528-24.004V498h5.78v-19.856q0-2.38.646-4.386t1.938-3.502 3.23-2.312 4.59-.816q3.332 0 5.236 1.904 1.904 1.905 1.904 5.168V498h5.78v-23.12q0-2.856-.578-5.202t-2.006-4.046-3.74-2.652-5.78-.952q-7.82 0-11.424 6.392h-.136v-5.576zm45.832 0v-10.54h-5.78v10.54h-5.984v5.1h5.984v22.372q0 2.448.476 3.944t1.462 2.312 2.584 1.122 3.842.306h4.42v-5.1h-2.652q-1.36 0-2.21-.102t-1.326-.442a1.68 1.68 0 0 1-.646-.952q-.17-.612-.17-1.632v-21.828h7.004v-5.1zm39.712 9.86v-17.816h12.648q5.508 0 8.058 2.278t2.55 6.63-2.55 6.664-8.058 2.244zm-6.46-23.256V498h6.46v-19.856h14.824q7.344.068 11.118-3.74t3.774-10.608-3.774-10.574-11.118-3.774zm43.452 0V498h5.78v-48.552zm45.9 48.416q-1.496.884-4.148.884-2.244 0-3.57-1.258t-1.326-4.114q-2.38 2.856-5.542 4.114t-6.834 1.258q-2.38 0-4.522-.544-2.142-.545-3.706-1.7-1.564-1.156-2.482-3.026t-.918-4.522q0-2.992 1.02-4.896t2.686-3.094 3.808-1.802a46 46 0 0 1 4.386-1.02 53 53 0 0 1 4.522-.714q2.142-.238 3.774-.68t2.584-1.292.952-2.482q0-1.905-.714-3.06t-1.836-1.768a7.5 7.5 0 0 0-2.516-.816 19 19 0 0 0-2.754-.204q-3.672 0-6.12 1.394t-2.652 5.27h-5.78q.135-3.264 1.36-5.508 1.224-2.244 3.264-3.638t4.658-2.006 5.61-.612q2.38 0 4.726.34t4.25 1.394a8.15 8.15 0 0 1 3.06 2.958q1.155 1.904 1.156 4.964v18.088q0 2.04.238 2.992t1.598.952q.748 0 1.768-.34zm-9.384-18.02q-1.088.815-2.856 1.19-1.768.374-3.706.612t-3.91.544-3.536.986-2.55 1.938-.986 3.434q0 1.428.578 2.414t1.496 1.598 2.142.884 2.584.272q2.856 0 4.896-.782t3.332-1.972 1.904-2.584.612-2.618zm14.756-17V498h5.78v-19.856q0-2.38.646-4.386t1.938-3.502 3.23-2.312 4.59-.816q3.332 0 5.236 1.904 1.904 1.905 1.904 5.168V498h5.78v-23.12q0-2.856-.578-5.202t-2.006-4.046-3.74-2.652-5.78-.952q-7.82 0-11.424 6.392h-.136v-5.576zm37.808 0V498h5.78v-19.856q0-2.38.646-4.386t1.938-3.502 3.23-2.312 4.59-.816q3.332 0 5.236 1.904 1.904 1.905 1.904 5.168V498h5.78v-23.12q0-2.856-.578-5.202t-2.006-4.046-3.74-2.652-5.78-.952q-7.82 0-11.424 6.392h-.136v-5.576zm43.928-6.324v-7.072h-5.78v7.072zm-5.78 6.324V498h5.78v-35.156zm14.756 0V498h5.78v-19.856q0-2.38.646-4.386t1.938-3.502 3.23-2.312 4.59-.816q3.332 0 5.236 1.904 1.904 1.905 1.904 5.168V498h5.78v-23.12q0-2.856-.578-5.202t-2.006-4.046-3.74-2.652-5.78-.952q-7.82 0-11.424 6.392h-.136v-5.576zm68.136 32.164v-32.164h-5.44v5.032h-.068q-1.564-2.924-4.352-4.386t-6.12-1.462q-4.556 0-7.684 1.734t-5.032 4.42a17.5 17.5 0 0 0-2.72 5.984q-.816 3.298-.816 6.426 0 3.604.986 6.834t2.958 5.644 4.896 3.842 6.868 1.428q3.4 0 6.426-1.53t4.522-4.794h.136v2.312q0 2.924-.578 5.372t-1.87 4.182a9.06 9.06 0 0 1-3.264 2.72q-1.972.986-4.828.986-1.428 0-2.992-.306a11 11 0 0 1-2.89-.986 7.2 7.2 0 0 1-2.244-1.768q-.918-1.088-.986-2.652h-5.78q.136 2.856 1.496 4.828a10.8 10.8 0 0 0 3.434 3.196q2.074 1.224 4.624 1.768t4.998.544q8.432 0 12.376-4.284t3.944-12.92m-16.184-1.7q-2.856 0-4.76-1.19a9.2 9.2 0 0 1-3.06-3.128q-1.156-1.938-1.632-4.318a24 24 0 0 1-.476-4.76q0-2.516.578-4.828.577-2.312 1.836-4.08a9.26 9.26 0 0 1 3.23-2.822q1.972-1.054 4.76-1.054 2.72 0 4.624 1.088a9 9 0 0 1 3.094 2.89q1.19 1.802 1.734 4.046a19.3 19.3 0 0 1 .544 4.556q0 2.448-.578 4.896t-1.802 4.386a9.5 9.5 0 0 1-3.23 3.128q-2.006 1.19-4.862 1.19m83.504-12.852v-31.008h-6.46v31.008q0 6.528-3.23 9.894t-9.418 3.366q-6.528 0-9.996-3.366t-3.468-9.894v-31.008h-6.46v31.008q0 9.725 5.27 14.178 5.27 4.455 14.654 4.454 9.18 0 14.144-4.658 4.964-4.657 4.964-13.974m9.384-17.612V498h5.78v-19.856q0-2.38.646-4.386t1.938-3.502 3.23-2.312 4.59-.816q3.332 0 5.236 1.904 1.904 1.905 1.904 5.168V498h5.78v-23.12q0-2.856-.578-5.202t-2.006-4.046-3.74-2.652-5.78-.952q-7.82 0-11.424 6.392h-.136v-5.576zm43.928-6.324v-7.072h-5.78v7.072zm-5.78 6.324V498h5.78v-35.156zm22.78 0v-10.54h-5.78v10.54h-5.984v5.1h5.984v22.372q0 2.448.476 3.944t1.462 2.312 2.584 1.122 3.842.306h4.42v-5.1h-2.652q-1.36 0-2.21-.102t-1.326-.442a1.68 1.68 0 0 1-.646-.952q-.17-.612-.17-1.632v-21.828h7.004v-5.1z"/></svg>