<svg xmlns="http://www.w3.org/2000/svg" viewBox="0 0 1024 513">
  <path fill="#000" d="M360 0v360H0V0zM81.45 39.6H39.6v80.08c0 35.873 28.965 56.465 61.66 59.798H39.6v139.878h41.85v-51.86h18.256l38.686 51.86h181.08V291.11h-49.056v-83.385h49.056v-36.919l-59.964-61.38 59.964-61.182V39.6h-41.85l-56.235 59.883V39.6h-81.3v79.487c0 17.004-12.603 26.89-29.332 26.89-16.7 0-29.304-9.886-29.304-26.89zm147.143 168.125v83.385h-49.057v19.603l-34.532-45.251c26.28-4.83 39.873-18.417 39.873-42.06 0-5.847-.848-11.073-2.487-15.677zm-108.852 0c15.712 0 22.098 6.101 22.098 15.677s-6.386 15.847-22.098 15.847h-38.29v-31.524zm59.795-71.04v64.882c-8.901-15.027-29.389-22.032-59.795-22.089 27.128-2.768 52.194-17.4 59.795-42.794m41.851-17.26 56.234 60.053h-56.234zm220.562 19.33V98h-14.393v40.755q0 7.343-2.934 10.785-2.933 3.442-10.635 3.442-4.4 0-7.013-1.24-2.613-1.238-4.08-3.212-1.467-1.973-1.925-4.543a29.7 29.7 0 0 1-.458-5.232V98h-14.394v40.755q0 13.401 7.289 19.826t20.581 6.425q13.11 0 20.536-6.47 7.426-6.472 7.426-19.781M454.326 98v65.538h14.394v-21.112l8.25-8.353 19.711 29.465h18.061l-28.053-39.653L512.267 98h-17.97l-25.577 27.17V98zm106.072 29.648v-18.45h15.769q4.95 0 7.426 2.157t2.475 6.93q0 4.957-2.475 7.16t-7.426 2.203zM546.005 98v65.538h14.393v-25.61h14.394q5.409 0 7.792 2.387t3.117 7.527q.55 3.947.826 8.26.275 4.315 1.466 7.436h14.394q-1.009-1.377-1.513-3.35a29 29 0 0 1-.733-4.177 72 72 0 0 1-.321-4.314 245 245 0 0 0-.183-3.672 39 39 0 0 0-.688-4.956q-.504-2.478-1.604-4.544a12.5 12.5 0 0 0-2.842-3.58q-1.743-1.514-4.401-2.249v-.183q5.5-2.203 7.93-6.425t2.43-10.005q0-3.765-1.33-7.022a16.9 16.9 0 0 0-3.85-5.737q-2.521-2.479-6.05-3.901Q585.701 98 581.3 98zm96.72 36.716h-21.177q.091-1.377.596-3.121.504-1.744 1.742-3.304t3.3-2.616 5.18-1.056q4.767 0 7.105 2.57t3.255 7.527m-21.177 8.26h34.196q.366-5.506-.917-10.555-1.284-5.049-4.171-8.995-2.889-3.947-7.38-6.288-4.493-2.34-10.543-2.34-5.41 0-9.856 1.927t-7.655 5.278-4.95 7.94q-1.743 4.59-1.743 9.913 0 5.508 1.696 10.097 1.697 4.589 4.814 7.894t7.609 5.094q4.492 1.79 10.085 1.79 8.067 0 13.751-3.672 5.684-3.671 8.435-12.208h-11.46q-.643 2.204-3.484 4.177-2.842 1.974-6.784 1.973-5.501 0-8.434-2.845-2.934-2.845-3.21-9.18m51.982 5.141h-12.377q.183 4.773 2.154 7.94t5.043 5.094 7.013 2.754a39.2 39.2 0 0 0 8.068.826q4.034 0 7.93-.78t6.922-2.708 4.905-5.094 1.879-7.848q0-3.304-1.283-5.554a11.76 11.76 0 0 0-3.393-3.763q-2.108-1.514-4.813-2.432a55 55 0 0 0-5.546-1.56 220 220 0 0 0-5.41-1.194q-2.659-.55-4.72-1.24-2.063-.687-3.347-1.79-1.284-1.1-1.284-2.845 0-1.469.734-2.34a4.8 4.8 0 0 1 1.788-1.331 8 8 0 0 1 2.337-.597q1.284-.138 2.384-.137 3.485 0 6.05 1.33 2.568 1.332 2.843 5.095h12.377q-.368-4.406-2.247-7.297t-4.721-4.636-6.463-2.478a37.5 37.5 0 0 0-7.472-.734q-3.85 0-7.518.688t-6.6 2.386a13.2 13.2 0 0 0-4.722 4.636q-1.788 2.937-1.788 7.527 0 3.12 1.284 5.277a11.15 11.15 0 0 0 3.392 3.58q2.108 1.423 4.813 2.295a64 64 0 0 0 5.546 1.515q6.968 1.469 10.864 2.937 3.897 1.469 3.897 4.406 0 1.743-.825 2.891a6.26 6.26 0 0 1-2.063 1.836 9.8 9.8 0 0 1-2.75 1.01 14 14 0 0 1-2.888.32q-1.926 0-3.713-.458-1.788-.459-3.163-1.423a7.6 7.6 0 0 1-2.246-2.478q-.871-1.514-.871-3.626m71.05-13.401h-21.177q.091-1.377.596-3.121.504-1.744 1.742-3.304t3.3-2.616 5.18-1.056q4.767 0 7.105 2.57t3.254 7.527m-21.177 8.26h34.196q.366-5.506-.917-10.555-1.284-5.049-4.171-8.995-2.889-3.947-7.38-6.288-4.493-2.34-10.543-2.34-5.41 0-9.856 1.927t-7.655 5.278-4.95 7.94q-1.743 4.59-1.743 9.913 0 5.508 1.696 10.097t4.814 7.894q3.117 3.304 7.609 5.094t10.085 1.79q8.067 0 13.751-3.672 5.685-3.671 8.435-12.208h-11.46q-.643 2.204-3.484 4.177-2.842 1.974-6.784 1.973-5.5 0-8.435-2.845-2.933-2.845-3.208-9.18m41.347-12.299q.274-4.59 2.292-7.618a15.6 15.6 0 0 1 5.134-4.865q3.117-1.836 7.013-2.616t7.839-.78q3.575 0 7.242.504 3.668.505 6.693 1.974t4.95 4.084 1.926 6.93v24.692q0 3.213.366 6.15.367 2.937 1.284 4.406h-13.202a19 19 0 0 1-.596-2.249 20 20 0 0 1-.32-2.34q-3.118 3.211-7.335 4.497a29.4 29.4 0 0 1-8.618 1.285q-3.392 0-6.325-.826-2.935-.825-5.134-2.57t-3.438-4.406q-1.239-2.662-1.238-6.334 0-4.038 1.42-6.654 1.421-2.616 3.668-4.177t5.134-2.34a55 55 0 0 1 5.822-1.24 99 99 0 0 1 5.775-.734q2.842-.275 5.043-.826t3.484-1.606q1.282-1.056 1.191-3.075 0-2.112-.687-3.35-.688-1.24-1.834-1.928-1.146-.69-2.658-.918a22 22 0 0 0-3.255-.23q-3.85 0-6.05 1.653-2.201 1.652-2.568 5.507zm30.07 9.638q-.825.735-2.062 1.147-1.238.413-2.66.689-1.42.274-2.979.459a55 55 0 0 0-3.117.459q-1.467.275-2.888.734-1.42.46-2.475 1.24a5.9 5.9 0 0 0-1.696 1.973q-.642 1.193-.642 3.029 0 1.743.642 2.937a4.9 4.9 0 0 0 1.742 1.882q1.1.689 2.567.963 1.467.276 3.025.276 3.85 0 5.96-1.285 2.107-1.286 3.117-3.075 1.008-1.79 1.237-3.626t.23-2.937zm23.103-24.232v47.455h13.019V142.15q0-3.212.642-5.967.64-2.753 2.154-4.818t3.988-3.259q2.475-1.194 6.05-1.193 1.192 0 2.476.137 1.284.139 2.2.322v-12.117q-1.558-.459-2.842-.458-2.475 0-4.767.734a17.5 17.5 0 0 0-4.309 2.065 16.2 16.2 0 0 0-3.575 3.213 16 16 0 0 0-2.476 4.084h-.183v-8.811zm67.934 16.705h12.744q-.276-4.59-2.2-7.94a17.9 17.9 0 0 0-4.997-5.599q-3.072-2.249-6.968-3.35a29.7 29.7 0 0 0-8.113-1.101q-5.776 0-10.268 1.927t-7.61 5.37-4.721 8.17q-1.605 4.726-1.604 10.234 0 5.323 1.741 9.775t4.86 7.665q3.116 3.212 7.563 5.002t9.764 1.79q9.443 0 15.493-4.957t7.335-14.41h-12.56q-.642 4.405-3.163 7.021t-7.197 2.616q-3.025 0-5.134-1.376a10.3 10.3 0 0 1-3.346-3.534q-1.238-2.157-1.788-4.82a26 26 0 0 1-.55-5.231q0-2.662.55-5.37.55-2.707 1.88-4.957a11.3 11.3 0 0 1 3.437-3.671q2.109-1.423 5.226-1.423 8.342 0 9.626 8.17M906.21 98v65.538h13.018v-24.875q0-7.251 2.384-10.418t7.7-3.167q4.677 0 6.51 2.891t1.834 8.766v26.803h13.018v-29.19q0-4.406-.78-8.03-.778-3.627-2.704-6.15-1.924-2.526-5.271-3.948t-8.572-1.422q-3.667 0-7.518 1.881t-6.326 6.012h-.275V98zM384.467 228.946q.275-4.59 2.292-7.619a15.6 15.6 0 0 1 5.134-4.864q3.117-1.836 7.013-2.616t7.839-.78q3.575 0 7.242.504 3.667.505 6.693 1.974t4.95 4.084 1.926 6.93v24.692q0 3.213.367 6.15.366 2.937 1.283 4.406h-13.202a19 19 0 0 1-.596-2.25 20 20 0 0 1-.32-2.34q-3.118 3.213-7.335 4.498a29.4 29.4 0 0 1-8.618 1.285q-3.392 0-6.325-.826-2.935-.826-5.134-2.57-2.2-1.745-3.438-4.406-1.238-2.662-1.238-6.334 0-4.038 1.421-6.654 1.421-2.617 3.667-4.177 2.247-1.56 5.134-2.34a55 55 0 0 1 5.822-1.24 99 99 0 0 1 5.776-.734q2.841-.275 5.042-.826t3.484-1.606 1.191-3.075q0-2.111-.687-3.35-.688-1.24-1.834-1.928-1.146-.69-2.658-.918a22 22 0 0 0-3.255-.23q-3.85 0-6.05 1.653-2.201 1.652-2.568 5.507zm30.07 9.638q-.825.735-2.062 1.147-1.238.414-2.659.689t-2.98.459a55 55 0 0 0-3.117.459q-1.466.275-2.888.734-1.42.459-2.475 1.24a5.9 5.9 0 0 0-1.696 1.973q-.642 1.193-.642 3.029 0 1.743.642 2.937a4.9 4.9 0 0 0 1.742 1.882q1.1.689 2.567.963 1.467.276 3.025.276 3.85 0 5.96-1.285 2.108-1.285 3.117-3.075t1.237-3.626q.23-1.836.23-2.937zm23.103-24.233v47.456h13.019v-24.875q0-7.252 2.383-10.418 2.385-3.167 7.701-3.167 4.676 0 6.51 2.891t1.833 8.766v26.803h13.019v-29.19q0-4.406-.78-8.031-.779-3.625-2.704-6.15-1.925-2.524-5.272-3.947-3.346-1.423-8.572-1.423-4.126 0-8.067 1.882-3.943 1.882-6.418 6.012h-.275v-6.609zm88.012 23.59q0 2.939-.55 5.691-.55 2.754-1.834 4.911a9.76 9.76 0 0 1-3.438 3.442q-2.154 1.285-5.363 1.285-3.025 0-5.18-1.33a11.44 11.44 0 0 1-3.575-3.489q-1.421-2.157-2.063-4.91a24.2 24.2 0 0 1-.642-5.508q0-2.937.596-5.645.597-2.707 1.925-4.819a10.15 10.15 0 0 1 3.53-3.396q2.2-1.285 5.41-1.285 3.207 0 5.317 1.285a10.6 10.6 0 0 1 3.437 3.35q1.33 2.065 1.88 4.773.55 2.709.55 5.645m.183 17.808v6.058h12.377v-65.538h-13.018v23.865h-.184q-2.2-3.487-6.005-5.278a18.6 18.6 0 0 0-8.022-1.79q-5.225 0-9.168 2.066t-6.555 5.461-3.942 7.848a32 32 0 0 0-1.329 9.225q0 4.957 1.33 9.546 1.33 4.59 3.941 8.124 2.613 3.533 6.647 5.599 4.034 2.065 9.351 2.065 4.676 0 8.389-1.698t6.005-5.553zm49.048-59.48v65.538h14.394v-65.538zm25.67 18.082v47.456h13.019v-24.875q0-7.252 2.383-10.418 2.384-3.167 7.701-3.167 4.676 0 6.51 2.891t1.833 8.766v26.803h13.019v-29.19q0-4.406-.78-8.031-.779-3.625-2.704-6.15-1.926-2.524-5.272-3.947t-8.572-1.423q-4.126 0-8.067 1.882-3.943 1.882-6.418 6.012h-.275v-6.609zm54.366 0v47.456h13.018v-24.875q0-7.252 2.384-10.418 2.384-3.167 7.7-3.167 4.677 0 6.51 2.891t1.834 8.766v26.803h13.018v-29.19q0-4.406-.78-8.031-.778-3.625-2.704-6.15-1.924-2.524-5.271-3.947t-8.572-1.423q-4.126 0-8.068 1.882t-6.418 6.012h-.275v-6.609zm65.917 23.774q0-2.845.55-5.6.55-2.753 1.88-4.864a10.56 10.56 0 0 1 3.529-3.442q2.2-1.33 5.5-1.331t5.547 1.33q2.247 1.332 3.576 3.443t1.879 4.865.55 5.599-.55 5.553-1.88 4.865a9.9 9.9 0 0 1-3.575 3.442q-2.246 1.285-5.546 1.285t-5.501-1.285a10 10 0 0 1-3.53-3.442q-1.329-2.157-1.88-4.865a28 28 0 0 1-.55-5.553m-13.019 0q0 5.69 1.742 10.28 1.743 4.59 4.95 7.848 3.21 3.259 7.702 5.003T732.296 263q5.592 0 10.13-1.744t7.747-5.003q3.21-3.258 4.95-7.848 1.743-4.59 1.742-10.28 0-5.691-1.741-10.326-1.743-4.636-4.951-7.894-3.21-3.259-7.747-5.049-4.538-1.79-10.13-1.79t-10.085 1.79-7.701 5.049q-3.21 3.258-4.95 7.894-1.743 4.635-1.743 10.326m83.703 23.682 16.044-47.456h-12.927l-9.993 32.402h-.183l-9.993-32.402h-13.66l16.227 47.456zm20.903-32.861q.274-4.59 2.292-7.619a15.6 15.6 0 0 1 5.134-4.864q3.116-1.836 7.013-2.616t7.839-.78q3.574 0 7.242.504 3.668.505 6.693 1.974 3.026 1.468 4.95 4.084 1.926 2.616 1.926 6.93v24.692q0 3.213.366 6.15.368 2.937 1.284 4.406H843.96a19 19 0 0 1-.596-2.25 20 20 0 0 1-.32-2.34q-3.118 3.213-7.335 4.498a29.4 29.4 0 0 1-8.618 1.285q-3.392 0-6.326-.826t-5.134-2.57q-2.199-1.745-3.438-4.406-1.237-2.662-1.237-6.334 0-4.038 1.42-6.654 1.421-2.617 3.668-4.177t5.134-2.34a55 55 0 0 1 5.822-1.24 99 99 0 0 1 5.775-.734q2.843-.275 5.043-.826t3.483-1.606 1.192-3.075q0-2.111-.687-3.35-.688-1.24-1.834-1.928-1.146-.69-2.659-.918a22 22 0 0 0-3.254-.23q-3.85 0-6.051 1.653-2.2 1.652-2.567 5.507zm30.07 9.638q-.824.735-2.063 1.147-1.237.414-2.658.689t-2.98.459a55 55 0 0 0-3.117.459q-1.466.275-2.888.734-1.42.459-2.475 1.24a5.9 5.9 0 0 0-1.696 1.973q-.642 1.193-.642 3.029 0 1.743.642 2.937a4.9 4.9 0 0 0 1.742 1.882q1.1.689 2.567.963 1.467.276 3.025.276 3.85 0 5.96-1.285 2.108-1.285 3.116-3.075t1.238-3.626q.23-1.836.23-2.937zm39.605-24.233v-14.227H869.08v14.227h-7.884v8.72h7.884v27.996q0 3.58 1.192 5.783t3.254 3.396q2.064 1.193 4.768 1.607a38 38 0 0 0 5.73.413q1.924 0 3.942-.092a31 31 0 0 0 3.667-.367V251.71q-.917.183-1.925.275t-2.109.092q-3.3 0-4.4-1.101-1.1-1.102-1.1-4.406v-23.498h9.534v-8.72zm29.154-7.343v-10.74h-13.018v10.74zm-13.018 7.343v47.456h13.018V214.35zm34.838 23.774q0-2.845.55-5.6.55-2.753 1.88-4.864a10.56 10.56 0 0 1 3.529-3.442q2.2-1.33 5.5-1.331t5.547 1.33q2.247 1.332 3.576 3.443t1.879 4.865.55 5.599-.55 5.553-1.88 4.865a9.9 9.9 0 0 1-3.575 3.442q-2.246 1.285-5.546 1.285t-5.501-1.285a10 10 0 0 1-3.53-3.442q-1.328-2.157-1.88-4.865a28 28 0 0 1-.55-5.553m-13.019 0q0 5.69 1.742 10.28 1.743 4.59 4.95 7.848 3.21 3.259 7.702 5.003T944.532 263q5.592 0 10.13-1.744t7.747-5.003q3.21-3.258 4.95-7.848 1.743-4.59 1.742-10.28 0-5.691-1.741-10.326-1.743-4.636-4.951-7.894-3.21-3.259-7.747-5.049-4.538-1.79-10.13-1.79t-10.085 1.79-7.701 5.049q-3.21 3.258-4.95 7.894-1.743 4.635-1.743 10.326m57.483-23.774v47.456h13.018v-24.875q0-7.252 2.384-10.418 2.384-3.167 7.7-3.167 4.677 0 6.51 2.891t1.834 8.766v26.803H1022v-29.19q0-4.406-.78-8.031-.778-3.625-2.704-6.15-1.924-2.524-5.271-3.947t-8.572-1.423q-4.126 0-8.068 1.882t-6.417 6.012h-.276v-6.609z"/>
</svg>