<svg xmlns="http://www.w3.org/2000/svg" viewBox="0 0 1120 600">
<g fill="none" fill-rule="evenodd">
<path fill="#000" d="M737.29 536c-4.008-2 23.154-22.378 44.104-33s69.162-29 77.18-27c3.535.882 14.315 13.68 35.082 37q10.644 11.952 40.094 44-15.87-5.248-26.06-4c-10.191 1.249-27.064 13-31.074 11-4.009-2 15.036-20 14.033-22-1.002-2-17.264 2.43-26.06 8-8.797 5.57-23.678 23.415-26.062 25-2.383 1.585-6.014 0-7.016-3s-1.293-5.683 7.016-18c8.31-12.317 40.094-41 28.066-34-6.001 3.492-19.509 8.331-43.1 29-7.932 6.949-25.556 29.085-28.066 31s-6.014 0-6.014-5 12.809-28.669 21.049-41 25.058-26 25.058-28-8.879.222-31.072 7-63.148 25-67.157 23"/>
<path fill="#fff" d="M723.29 204q68.109-27.053 104.191-39 36.084-11.947 104.192-30l42.077-5q-23.464-15.645-36.066-17t-29.054 10l-28.051-10q-9.87-48.875-21.039-77C848.371 7.876 848.52 2 836.498 2s-25.69 16.281-34.063 40q-8.373 23.72-3.005 65-33.06 4-52.096 28t-24.044 69"/>
<path fill="#000" d="M837.498 0q13.023 0 23.04 26 3.708 9.62 7.963 24.442l.461 1.618q6.805 23.985 14.993 61.092 10.089 3.367 20.64 7.732 19.517-10.78 32.079-9.884c13.194.94 44.078 19 43.076 21q-.93 1.859-45.98 7.171L887.587 147l-2.28.81Q772.982 187.722 762.365 192c-16.41 6.612-28.1 11.27-34.94 13.575l-.657.219c-3.955 1.303-6.124 1.735-6.477 1.206-2.004-3 5.008-82 64.113-100a115 115 0 0 1 11.124-2.799q-8.404-37.82 5.906-70.201 15.028-34 36.064-34m89.158 135q-89.159-44-147.26-19c-46.082 17-54.097 79-54.097 85 0 2.605 12.822-6.58 34.06-15q11.379-4.51 125.222-43l.677.901-.677-.901Zm-16.09-11.92-.375.174q11.175 4.845 22.86 10.781 33.676-5.118 33.676-6.035c0-1-20.027-11.31-30.053-12q-9.48-.653-26.108 7.08M837.498 5c-18.21-4.242-36.064 33-38.067 76q-.256 5.505 1.676 22.224 33.82-5.114 75.983 7.735Q853.367 9.95 837.498 5"/>
<path fill="#fff" d="M922.75 130q32.994-24.948 54-30t25 11q1 6 1 9t-1 5q-22.258 14.067-37 15t-42-10"/>
<path fill="#fbffff" d="M1002.75 113v12q17.532 14.954 27 26t14 23q-30.13 45.423-45 69-14.869 23.577-25 44l27 11q32.935-60 49-91 16.066-31 22-46-18.359-18.901-30-27t-39-21"/>
<path fill="#000" d="M979.75 97q20-3 25 14 29.589 14.958 42 24c12.412 9.043 28 24 28 27s-23.046 46.429-35 70q-11.955 23.572-37 70l-6-4q28.212-48.504 41-73t30-63q.234-4.522-18-18t-51-33q.726-14.064-19-9-19.725 5.065-55 28c1 0 18.032 5.215 29 2s29.549-20.371 29-19-13 21-31 24-30.378-6.58-32-7c-.48-.124-.326-.175.154-.185q-1.09-.253-.154-.815c1.965-1.18 40-29 60-32m23 23q3 0 3 3 16.913 16.757 25 26c8.087 9.242 16 21 16 24 0 2.22-11.203 17.86-22.11 34.148l-.884 1.321c-3.53 5.29-6.996 10.613-10.006 15.531q-12.542 20.491-37 63l-6-2 11-20q59-93 59-95c0-2-3.877-6.022-12-15q-8.123-8.978-26-27-15.084 11.286-24 13c-8.916 1.715-29.146-1.166-28-3s18 0 33-5 16-13 19-13"/>
<path fill="#fbffff" d="M802.29 174q39.79 33.155 63.206 62 23.415 28.845 43.14 69l35.114-23q-6.955-8.332-20.065-20t-36.118-30q-14.94-12.168-6.02-28 8.922-15.831 47.154-45-13.716-2.873-22.072-5t-22.071-9z"/>
<path fill="#fff" d="M931.75 158q-48.994 33.035-52 53c-1.63 10.823 6.551 21.824 23 34q3.78 2.798 12 9l23-21 10 5q12.826 5.707 22 4t21-12q21.442-29.328 27-46t-4-23q-5.328-6.207-27-7t-55 4"/>
<path fill="#fff" d="M986.25 193c2.485 0 4.5-5.149 4.5-11.5s-2.015-11.5-4.5-11.5-6.5 5.649-6.5 12 4.015 11 6.5 11"/>
<path fill="#000" d="M805.405 174q41.642 35.235 66.105 66t38.061 65h-2.003l-5.008-9q-34.867-1.437-52.083-3-17.215-1.563-14.023-3 19.055-2.682 30.048-6 10.995-3.318 13.021-7-33.68 3.705-51.081 3-17.4-.705-23.037-6 21.53 1.304 38.06-4t18.03-14q-30.383 8-46.074 8t-43.069-8q34.054 3 59.094-8t14.023-24q-48.874 14.415-71.114 16-22.239 1.585-41.065-8 14.022 5 44.07-8c30.048-13 44.07-22.217 44.07-26 0-2.648-14.066.728-27.775 4.457l-1.174.32-1.17.322c-5.06 1.393-9.956 2.79-13.95 3.901q-15.364 4.272-35.057 12 13.58-15.4 27.043-25 13.464-9.601 36.058-20m86.137-27q6.47 6.563 34.055 8c13.926.725 33.239-2.862 57.09-4 7.645-.365 20.032 0 24.039 2 .28.14.602.297.957.474l.312.156c4.852 2.441 14.983 8.266 13.755 22.37-1.35 15.5-13.02 34-21.034 46-8.012 12-16.025 19-31.05 22q-14.065 2.809-29.89-9.286l-22.521 19.028.329.258q12.75 10.03 30.048 28l-3.005 3-59.45-54.408-.887-.592q-11.858-14.823-1.256-30.624l.256-.376q1.79-2.603 4.186-5.415c-2.483.205-6.034.168-8.186-.585-3.573-1.25-9-6.438-9-7s5.172 3.66 9 5c2.58.903 6.68 1.259 9.078 1.555q12.067-13.726 38.23-32.355a38 38 0 0 1-2.003-.2q-27.191-3.475-37.06-13zm37.79 13.333q-26.565 18.176-39.18 32.547.137.057.138.12c0 .078-.163.16-.451.24a73 73 0 0 0-4.549 5.76q-11.868 16.814 1.695 32.648l.099.114.923.64q13.971 9.69 24.124 17.39l23.987-18.63q-6.6-4.2-9.828-4.162c-12.662.156-20.699 6.301-24 3-6.585-6.585 1-23 14-20q12.52 2.89 23.187 22.477L940.62 234l-.137.117q21.49 8.195 30.185 5.883c8.461-2.249 16.617-12.954 22.036-19 17.027-19 23.036-38 24.038-48s-14.703-16.955-22.035-17c-25.83-.157-50.22 4.695-65.375 4.333M983.79 168c4.142 0 7.5 6.268 7.5 14s-3.358 14-7.5 14-7.5-6.268-7.5-14 3.358-14 7.5-14m2 3c-2.485 0-4.5 4.925-4.5 11s2.015 11 4.5 11 4.5-4.925 4.5-11-2.015-11-4.5-11"/>
<path fill="#fff" d="M902.309 230c-1.637-1.314.997-6.518 3.112-8s6.88-1.142 8.301 0 .971 2.865-2.075 5-7.702 4.314-9.338 3"/>
<path fill="#fff" stroke="#000" stroke-linecap="round" stroke-width="2" d="M887.378 176.876c4.843-1.118 7.956-9.877 5.72-19.563s-8.975-16.632-13.819-15.514c-4.843 1.118-6.956 9.877-4.72 19.563s7.975 16.632 12.819 15.514Z"/>
<path fill="#000" d="M885.477 175.834c2.297-.53 3.778-4.669 2.722-9.243s-4.249-7.852-6.546-7.321c-2.297.53-3.304 4.668-2.248 9.242s3.775 7.852 6.072 7.322M855.29 167c4 0 3.948-17.632 8-24s13.79-7.892 13-10-11.425-5.408-16 2-9 32-5 32"/>
<path fill="#fbffff" d="M927.29 560q2.984 10.698 5.037 16a57 57 0 0 0 5.037 10q10.145 15.915 17.126 24t13.097 11l22.163-30-20.148-5q-7.722 9.58-11.082 8t-8.06-17z"/>
<path fill="#fff" d="M907.29 619q-2-22 20-59 6.49 19.198 9 26c2.389 6.474 5.557 8.628 6 14q1.363 16.524-7 57-26-16-28-38"/>
<path fill="#000" d="M927.415 556v5q-17.088 34-17.087 56c0 22 21.108 35 23.118 35 1.29 0 2.628-7.3 3.656-15.25l.1-.784.099-.786.096-.789.093-.788c.401-3.412.738-6.785.982-9.603.114-1.314.248-2.635.388-3.959l.143-1.324c.935-8.608 1.971-17.249-.531-24.717l-5.026-15q29.15 38 33.17 38t20.103-27h6.031q-22.113 33-26.134 33-4.02 0-21.108-21-.196 26.712-2.01 37c-1.815 10.288-5.026 21-8.042 21s-29.149-14-32.164-43q-3.016-29 24.123-61m22.113 21 4.021 2q2.637 10.982 5.026 12t9.046-6l4.02 1q-8.04 11-14.071 9-6.03-2-8.042-18"/>
<path fill="#fbffff" d="M916.75 317q20.862 58.897 27 92t0 67q-6.765 21.808-13 36t-17 30q20.577 25.022 37 35t42 13q19 0 57-62-2.583-55.384-9-84-6.417-28.615-28-81l-22-48z"/>
<path fill="#fff" d="M931.75 478q37.265-11.079 59-12t59 7l-5 25q-35.575-3.713-55-3t-54 7z"/>
<path fill="#000" d="M996.75 323q24.036 48.636 33 75 8.544 25.13 17.153 70.492 4.138 2.706 4.846 7.508 1.135 7.684-6.023 24l-26.103-1q-6.873-1-29.873-1c-18.068 0-41.071 5.554-50.592 6.482q-4.51 7.027-5.85 9.042l-.137.204Q917.751 536.732 917.75 542c0 6 20.606 26.1 34 34s37 12 43 12c5.316 0 14.025-7.934 21.978-16.625l.68-.747q1.187-1.311 2.342-2.628 8.68-9.895 25-37v8q-19.325 33.126-30 44c-9.545 9.722-16.411 10.853-22.047 10.983l-.443.008q-.44.007-.87.008h-.428l-.212.001c-6 0-28.574-6.504-43-16s-36-30-36-36q0-6 22-40h.316c-.85-2.484-2.247-6.618-3.493-10.834l-.26-.888c-1.716-5.925-3.041-11.797-2.05-13.278.821-1.226 5.058-3.267 11.265-5.397q4.597-26.674 4.222-42.603c-.09-3.789-.478-7.895-1.009-11.995l-.148-1.118C940.674 401.734 937.23 388 938.75 388c2 0 8.882 14.997 11 35q1.99 18.803-3.295 46.436c8.17-2.333 18.155-4.474 27.99-5.436q21.72-2.125 66.26 2l.371.09q-5.727-32.422-15.326-60.09-10.176-29.33-35-83Zm-7 147q-28 1-56 10 4 20 6 20c2 0 22.419-7.925 45-9q22.58-1.076 58 4 2.472-5.655 3-9c.528-3.346 2-8 0-10s-28-7-56-6"/>
<path fill="#fff" d="M852.29 291q20.103-.35 30.07 4 9.969 4.35 18.043 17 29.112-21.832 47.111-32 18-10.169 36.085-15l-10.024 22q25.21 9.063 43.102 23 17.892 13.938 31.073 34-38.028-19.632-64.151-23t-83.196 4l-11.026 50q-10.023-12-10.023-30t8.019-22l9.02-8q-19.762-5.482-28.065-10t-16.038-14"/>
<path fill="#000" d="m983.652 264.971-.053.029q1.329.663-7.119 20.858c8.985 1.945 22.025 6.797 37.187 18.142 28.064 21 38.087 41 36.082 42-2.004 1-34.825-16.106-65.148-22-15.904-3.091-45.354 2.792-79.33 2.323q-1.182 9.465-5.864 20.677c-1.303 3.12-2.403 6.916-3.37 10.826l-.22.904q-.11.452-.217.906l-.212.907-.186.812c-2.276 10-3.827 19.645-5.818 19.645-3.007 0-13.03-22-13.03-38q0-15.042 15.945-26.548.044-.223.092-.452l.68-.543q-15.79-2.768-26.74-8.457-12.085-6.28-18.041-16 17.295-5.852 28.064-2 10.554 3.776 24.484 20.316 28.413-22.223 44.674-31.316c18.42-10.3 39.662-13.927 38.14-13.029M890.452 323h-.066c-1.822.182-6.994 11.013-8.018 22s1.77 21.223 4.009 21c1.324-.132 2.798-5.225 4.01-10.89l.145-.682.141-.686.139-.688.143-.728.14-.726c.53-2.778.977-5.48 1.296-7.6 1.081-7.196-.121-20.512-1.873-20.989zm92.424-57.636-.019.01c-5.793 2.94-40.634 20.814-55.386 30.626a395 395 0 0 0-8.398 5.743l-1.012.715C904.401 312.134 891.098 323 898.404 323c9.02 0 56.705-6.803 86.197-3s55.126 19 57.13 18-18.48-21.106-33.075-31c-4.087-2.77-9.52-5.655-15.196-8.39l-1.22-.583c-5.094-2.422-10.321-4.708-14.896-6.67l-1.085-.466c-7.68-3.285-13.245-5.568-12.706-5.891.413-.248 2.954-.55 7.18-.089q9.62-17.162 12.143-19.547M939.498 299c-1.37 1.823-7.05 5.013-13.155 8.3l-.816.44q-1.023.55-2.049 1.097l-.817.438c-1.088.582-2.165 1.16-3.209 1.725-8.09 4.382-14.025 7.658-12.027 5s11.345-9.373 18.041-13c.558-.302 1.134-.6 1.719-.888l.504-.246q.632-.305 1.273-.596l.511-.23q.255-.113.512-.223l.51-.218c5.43-2.294 10.441-3.513 9.003-1.599m-84.192-7c-.842 2.1 9.186 9.928 21.048 15s19.263 5.953 20.046 4-8.016-10.399-16.037-14c-2.433-1.092-5.619-2.176-8.9-3.096l-.73-.202-.732-.196-.732-.19c-6.825-1.742-13.433-2.638-13.963-1.316"/>
<path fill="#fbffff" d="M750.29 140q22.458-5.017 40 2t35 28l-20 4q-28.815-6.849-42-15-13.186-8.151-13-19"/>
<path fill="#000" d="M748.29 139c3-2 25.802-6.033 39-2q13.197 4.032 41 33l-6 2q-18.758-22.416-35-28c-12.901-4.435-26.758-4.98-32.414-4.013 4.81.817 12.611 3.083 20.118 5.721l.968.343c4.508 1.61 8.857 3.338 12.328 4.949 12.395 5.755 21.291 16 20 16-.94 0-8.023-4.998-15.587-9.475l-.71-.418q-.534-.312-1.069-.62l-.713-.405c-2.019-1.141-4.028-2.203-5.921-3.082-3.724-1.729-9.816-3.732-15.83-5.662l-.948-.304c-6.368-2.039-12.502-3.974-15.472-5.387-.715 2.452-.009 7.951 11.25 14.353q12.392 7.047 50 16l-9 5q-31.422-8.632-43-16c-11.578-7.368-16-20-13-22"/>
<path fill="#fbffff" d="M992.75 535q17.58-27.484 30-39t24-11q-.368 20.228 1 30 1.368 9.773 6 20-5.708 12.068-7 17c-1.972 7.529-.953 13.757-2 15q-2.599 3.086-7-13 5.466-35.755-2-37t-33 31z"/>
<path fill="#fff" d="M1096.75 476q-16.453 4.419-25 21c-4.903 9.511-20 38-27 60-1.547 4.863-1 19 1 16s32.847-21.484 46-47q13.152-25.516 5-50"/>
<path fill="#000" d="M1075.75 487c8.346-9.944 18-16 23-13s11 25-6 56-45.755 44.245-47 43 32-24 42-48 11-44 8-46-10.595 4.96-20 18q-9.405 13.04-24 43-6.356-16.865-8-26c-.573-3.182-.747-7.18-.814-11.04l-.012-.746c-.1-6.933.084-13.214-1.174-13.214-2 0-11.956 3.546-21 12s-17 21-25 31q-8 10-3-2 15.82-24.82 25-33c9.181-8.18 28-18 30-16s.912 21.3 2 30q1.087 8.7 4 19 13.654-33.056 22-43m-41 28c3 0 5.18 3.717 7 11 1 4-1.737 15.53-1 27q.135 2.085 4 3v12q-5.153 1.95-8-12c-.97-4.749 1-16 1-18s2-19-3-19-28 27-31 30-3.715 1.21-3 0 10.278-16.278 16-22 15-12 18-12"/>
<path fill="#fbffff" d="M913.39 323q37.208-5 37.208-3t-19.106 61q16.098-9.504 27.151-15t15.085-6l4.022 13q-22.638 17.587-38.213 32c-15.576 14.413-38.214 45-43.242 36q-5.028-9 17.096-118"/>
<path fill="#fff" d="M1055.75 414c1-3-6.18-28.543-26-42q-19.82-13.458-55-13-.367 3.159 0 5 .369 1.842 2 5 26.592 27.363 40 35c13.408 7.637 38 13 39 10"/>
<path fill="#000" d="M973.68 361.353q-18.806 7.911-29.244 13.647c-10.67 5.863-17.047 14-19.052 13-1.324-.66 2.059-9.03 5.44-16.742l.318-.72c1.636-3.713 3.237-7.209 4.27-9.538.387-.875.782-1.842 1.182-2.858l.2-.512q.351-.904.704-1.839l.202-.534.202-.535.1-.268.202-.535.202-.534c2.348-6.216 4.626-11.885 6.03-8.385q2.006 5-9.025 30 16.055-9.645 26.072-14 10.017-4.354 13.036-3 34.45-3.825 57.158 12c22.707 15.824 28.078 44 26.072 46s-29.08 0-49.136-12c-13.268-7.939-24.434-21.369-30.12-29.97q-22.358 17.46-31.049 25.97c-26.755 26.197-40.11 44-46.127 44-7.02 0-11.746-1.643-9.025-31q2.721-29.356 17.047-88h6.017q-10.568 49.905-14.039 75c-3.471 25.096-8.022 45-1.003 41 3.931-2.24 11.845-11.022 20.396-20.449l.919-1.012.46-.507.925-1.017q.925-1.018 1.855-2.034l.929-1.014c5.11-5.57 10.214-10.961 14.627-14.967q13.372-12.138 36.1-30l-.35.275c-1.337-2.367-1.937-3.939-1.656-4.275 1.215-1.454 22.299 22.203 39.108 32 16.81 9.797 36.1 16 38.105 13 2.006-3-9.74-28.074-25.069-38q-15.328-9.925-52.144-12Z"/>
<path stroke="#000" stroke-linecap="round" stroke-width="2" d="M665.216 544.988c-2.052-.89-7.986-14.185-17.452-11.464-9.465 2.72-.343 12.036-3.16 11.79-2.819-.247-17.18-6.472-25.606.599-8.427 7.07 8.779 21.352 7.247 22.638q-1.533 1.285-27.314-12.327l-.617 7.044 19.997 6.718q-11.887 6.058-9.685 13.349 2.2 7.291 14.51 12.626-14.703 5.812-5.062 17.303 9.642 11.49 15.893 4.94 5.91 5.485 11.667 4.569c5.759-.916 2.791-7.564 3.557-8.207.766-.642 10.012 7.265 14.608 3.408 4.597-3.857-.916-5.759 2.915-8.973s19.3-9.668 25.675-17.628 4.742-17.535 3.998-29.462 4.816-14.485-7.247-22.638-21.872 6.604-23.924 5.715Z"/>
<path fill="#fff" d="m490.864 517.667 40.883 11.385q3.71 1.875 5.389 3.31t5.142 6.129l46.79 16.87-2.147 8.33q-31.022-10.522-31.787-9.88c-.379.318.159 4.042-4.72 5.266q-1.702.427-9.096-1.505l-13.718-5.46q-11.093 7.237-17.003 7.74t-15.893-4.939q-14.429 3.452-20.34 5.319a42.2 42.2 0 0 0-11.121 5.415l-5.46 13.718-27.067-15.144q13.514-18.278 22.709-24.276 9.195-6 26.222-7.644.947-6.405 2.914-8.972t8.303-5.662"/>
<path fill="#000" d="M591.244 554.842c.643.766-.863 9.861-3.038 10.38q-1.645.394-32.414-9.885-3.063 5.272-6.91 5.026-4.155-.267-21.248-7.74-8.003 6.978-13.576 8.242-7.345 1.666-18.835-3.777l-.787-1.267-.01.01q-1.254 1.115-5.085 3.582-16.25 1.59-22.514 5.838c-6.266 4.248-4.94 15.893-8.524 16.29-1.66.183-7.752-2.914-13.944-6.445l-.844-.484-.844-.488c-6.594-3.83-12.85-7.86-13.487-8.618-1.285-1.532 10.998-18.545 22.19-26.45q11.19-7.905 27.753-8.93-5.618-9.955-4.65-11.763.97-1.808 9.74 2.272 2.169-1.34 3.064-2.572c.894-1.232-.397-3.583 1.778-4.103.725-.173 5.016 2.463 11.667 4.57 2.394.758 5.01 1.56 7.702 2.373l.9.272.903.271.907.272 1.364.408 2.272.676.904.268c9.93 2.947 19.11 5.623 20.295 6.352 2.695 1.655 5.143 6.128 6.428 7.66s48.2 16.993 48.843 17.76m-4.993.273q-42.045-14.326-44.74-15.981-2.693-1.656-7.07-8.427l-34.728-8.717-2.817-.246-5.512-1.902q-6.527 1.766-8.18 4.253t-1.63 10.505q-13.654-1.796-24.566 4.948c-10.91 6.746-22.585 22.868-22.065 25.043.245 1.025 4.903 3.854 9.909 6.573l.734.397c5.397 2.901 10.966 5.567 11.678 5.63 1.41.123 2.718-9.426 5.336-12.31q2.618-2.885 8.946-4.896 18.626-4.357 22.366-4.972l.02-.003-2.442-3.927q14.138 9.519 21.282 8.25 7.145-1.268 19.67-13.895l52.55 15.955zm-91.732.632q.933-.858.185-.834a6 6 0 0 0-.682.083l-.09.014.504.81Zm29.087-6.843.014.021c.128.539-8.928 6.61-14.705 5.812-4.868-.672-10.913-6.684-12.777-8.9-1.862 1.412-3.29 2.198-3.636 1.785-1.285-1.532 9.934-7.88 9.686-13.348-.248-5.47-12.071-7.195-10.654-8.03 1.416-.836 14.661 3.47 16.536 5.705 1.341 1.599-6.551 9.72-11.62 13.649 2.223 1.671 8.135 6.438 11.946 6.964 4.809.664 15.095-4.175 15.224-3.637Zm-25.645-15c.174.207-.309.193-1.102.127l-.748-.064c-1.817-.156-4.419-.32-5.317.73-1.497 1.75-.328 8.943-.74 8.452-.411-.49-2.583-9.12-1.188-10.75 1.395-1.632 8.536.838 9.095 1.505m19.847.317c-.066.757-3.839.61-5.882 2.324s-4.816 7.387-5.608 7.317c-.5-.043.288-2.165 1.223-4.278l.195-.436a63 63 0 0 1 1.373-2.85q1.137-2.195 3.187-3.98 5.579 1.146 5.512 1.903m6.428 7.66c-4.021 3.374-12.766 2.847-13.692 2.351-.925-.496 3.79-1.26 8.946-4.896 1.347-.95.08-5.014 1.779-4.103s6.031 4.077 2.967 6.648m29.483 12.764-.712-.24a3807 3807 0 0 1-20.045-6.792 114 114 0 0 1-3.792 3.637q15.881 5.969 19.193 6.938 2.97.87 5.356-3.543"/>
<path fill="#fff" d="m382.014 512.403-28.194 30.184 88.114 7 12.01-7.467q-1.505 9.095 3.734 6.005c5.239-3.091 11.367-8.233 11.983-15.277.617-7.045-7.191-16.397-12.855-15.321q-5.664 1.076-16.06 21.308zM474.31 544.611q7.291-2.2 11.914 1.752a36.3 36.3 0 0 1 7.714 9.193l8.849 4.323q-8.153 12.063-18.015 11.2-9.862-.862-10.532-9.439-1.326-5.894-1.312-9.342t1.383-7.687"/>
<path fill="#000" d="m444.232 547.658-3.83 3.214-90.288-6.48 6.128-5.142zm21.546-27.217c6.428 7.66 5.935 13.296 3.39 18.042s-11.34 16.043-15.84 10.68 1.142-21.844 1.972-22.54c.446-.375.073 5-.017 10.279l-.01.718c-.05 4.301.121 8.36 1.12 8.973 2.272 1.396 8.426-7.071 10.204-11.174 1.779-4.104-.819-14.978-8.629-14.951-3.816.012-6.853 4.67-9.467 9.55l-.363.682c-2.576 4.892-4.748 9.803-6.873 10.31q-4.35 1.04-61.426-28.088l2.299-1.928q56.036 24.777 58.977 23.615c2.941-1.162 4.57-11.667 8.4-14.881s9.835-6.947 16.263.713m38.418 39.561q-8.154 12.063-19.548 12.486c-8.369.31-11.106-6.922-11.66-11.043a4 4 0 0 1-.415-.32c-3.74-3.302-3.705-14.157.668-18.186 4.373-4.03 6.9-4.433 15.8 3.011 8.901 7.445 7.302 11.227 4.005 14.264-2.766 2.55-12.677 3.786-18.001 2.166 1.987 3.88 5.713 9.198 12.668 7.537q10.875-2.598 13.022-10.927zm-18.352-11.435c-2.776-2.162-7.991-4.64-10.094-2.54-2.103 2.097-1.39 8.996 1.427 11.189s11.186 3.43 13.887.735-2.443-7.222-5.22-9.384"/>
<path stroke="#000" stroke-linecap="round" stroke-width="2" d="M583 330.295c-2 1-16-3-20 6s9 8 7 10-16 9-16 20 22 7 22 9q0 2-27 13l5 5 18-11q-3 13 4 16t19-3q-5 15 10 15t14-9q8-1 11-6c3-5-4-7-4-8s12-3 12-9-5-3-5-8 5-21 3-31-10.385-14.903-20-22-8-13-22-9-9 21-11 22Z"/>
<path fill="#fff" d="m450 446.177 35-23.945q3.82-1.632 6-1.995t8 0l43-24.942 5 6.984q-28 16.96-28 17.958c0 .493 3.198 2.47 1 6.984q-.767 1.575-7 5.986l-13 6.984q-1.587 13.117-5 17.958t-14 8.979q-6.63 13.24-9 18.956a42 42 0 0 0-3 11.972l7 12.97L447 522q-5.316-22.05-4-32.923 1.316-10.875 11-24.942-4.299-4.833-5-7.982-.702-3.148 1-9.976"/>
<path fill="#000" d="M543 393.295c1 0 7 6.984 6 8.98q-.757 1.509-28.408 18.435 2.07 5.721-.592 8.504-2.875 3.006-19.587 11.276.201 10.593-2.413 15.663-3.444 6.683-15 11.973l-1.477-.21.002.013q.047 1.674-.525 6.184-9.228 13.44-10 20.952c-.772 7.514 9 13.969 7 16.962-1.01 1.512-8.403 4.553-15.729 7.192l-.915.327C454.504 521.986 447.947 524 447 524c-2 0-7.138-20.3-6-33.923q1.138-13.625 11-26.94-11.238-2.091-12-3.99t8-5.987q.369-2.517 0-3.991c-.37-1.474-3-1.996-2-3.991.333-.665 5.111-2.254 11-5.987 1.884-1.194 3.908-2.5 5.987-3.854l.782-.51.786-.513 1.184-.776 1.189-.78q.99-.653 1.98-1.303l.788-.52c8.79-5.797 16.964-11.253 18.304-11.698 3-.998 8 0 10 0s44-25.942 45-25.942m-3 3.991q-38 22.948-41 23.946t-11 0l-29 20.953-2 1.995-5 2.993q-2.843 6.123-2 8.98t7 7.982q-10.154 9.285-12 21.95c-1.846 12.666 3 31.928 5 32.926.966.482 6.36-1.362 11.793-3.51l.776-.309c5.557-2.224 10.937-4.667 11.431-5.16 1-.998-5.474-8.123-6-11.973q-.526-3.85 2-9.978 8.636-17.031 10.568-20.283l.01-.017-4.578-.653q16.38-4.7 20-10.975t2-23.946l46-29.932zm-58.48 70.519q-.057-1.263-.52-.677a6 6 0 0 0-.375.574l-.047.08.945.134Zm13.455-26.621.025.003c.495.247-.675 11.062-5 14.966-3.644 3.29-12.135 4.055-15.031 4.058-.115 2.33-.43 3.924-.969 3.924-2 0 .349-12.646-4-15.964s-13.27 4.612-13 2.993c.27-1.618 12.083-8.98 15-8.98 2.087 0 3.236 11.242 2.987 17.636 2.709-.627 10.16-2.09 13.013-4.665 3.6-3.25 6.505-14.215 7-13.968ZM467 451.164c.27 0-.05.36-.61.925l-.39.39c-1.292 1.289-3.236 3.262-3 4.672.379 2.266 6.64 5.986 6 5.986s-8.647-3.874-9-5.986c-.353-2.113 6.13-5.987 7-5.987m13-14.966c.537.536-2 3.326-2 5.987s2.562 8.418 2 8.98c-.33.329-1.323-1.35-2.28-3.254l-.211-.426A64 64 0 0 1 476 444.18q-.95-2.276-1-4.989 4.463-3.528 5-2.993m10 0c0 5.238-6.025 11.584-7 11.973s1.471-3.704 2-9.977c.138-1.639-3.79-3.277-2-3.991 1.79-.715 7-1.996 7 1.995m28.73-14.348-.643.39A3809 3809 0 0 1 500 433.205q.245 2.752.349 5.23 14.78-8.31 17.651-10.219 2.575-1.713.73-6.366"/>
<path fill="#fff" d="m376 526 5 41 62-63 2-14q6 7 7 1c1-6 1-14-4-19s-17.183-5.03-20 0q-2.817 5.03 6 26zM460 476q3-7 9-8t12 0l9-4q4 14-3 21t-14 2q-5.367-2.772-8-5-2.633-2.227-5-6"/>
<path fill="#000" d="M443 501v5l-63 65v-8zm-7-34c10 0 14 4 16 9s5 19-2 19-16-14.916-16-16c0-.582 3.878 3.159 7.863 6.62l.544.47c3.263 2.804 6.482 5.28 7.593 4.91 2.53-.844 0-11-2-15s-12-9-17-3c-2.443 2.932-.827 8.251 1.23 13.392l.29.716c2.092 5.118 4.457 9.937 3.48 11.892q-2 4-61 29v-3q55-27 56-30c1-3-6-11-6-16s1-12 11-12m55-4q4 14-3 23c-5.142 6.61-12.442 4.058-15.955 1.834a4 4 0 0 1-.512.112c-4.933.743-13.226-6.262-13.501-12.202-.276-5.94 1.038-8.134 12.462-10.167 11.425-2.034 13.294 1.623 13.502 6.1.174 3.758-5.249 12.145-9.912 15.182 4.248.972 10.718 1.537 13.916-4.859q5-10 0-17zm-20.556 6.707c-3.44.738-8.69 3.14-8.435 6.1.256 2.96 5.999 6.847 9.49 6.1 3.49-.748 9.817-6.364 9.489-10.166-.329-3.803-7.103-2.77-10.544-2.034"/>
<path stroke="#000" stroke-linecap="round" stroke-width="2" d="M33.864 645.79c1.866-1.233 5.402-15.357 15.196-14.321s2.429 11.794 5.16 11.062c2.733-.732 15.795-9.357 25.321-3.857s-4.938 22.553-3.206 23.553q1.733 1 24.759-16.883l1.83 6.83-18.526 10.089q12.757 3.901 11.856 11.464-.902 7.562-12.098 14.954 15.49 3.17 7.99 16.16t-14.794 7.625q-4.867 6.427-10.696 6.526c-5.83.098-4.062-6.964-4.928-7.464s-8.598 8.892-13.795 5.892-.098-5.83-4.428-8.33-20.686-6.17-28.347-12.902c-7.66-6.732-7.714-16.445-9.052-28.32-1.339-11.875-7.258-13.428 3.206-23.553s22.686 2.706 24.552 1.474Z"/>
<path fill="#fff" d="m200.823 588.608-38.285 18.31q-3.327 2.49-4.732 4.197-1.404 1.705-4 6.928l-43.15 24.739 3.562 7.83q28.722-15.748 29.588-15.249c.428.248.546 4.008 5.563 4.366q1.75.126 8.696-3.062l12.562-7.758q12.18 5.2 18.088 4.67t14.795-7.625q14.807.895 20.954 1.706a42.2 42.2 0 0 1 11.892 3.402l7.759 12.562 24.026-19.614q-16.482-15.654-26.579-19.964-10.096-4.31-27.15-2.974-2.046-6.145-4.429-8.33-2.382-2.186-9.16-4.134"/>
<path fill="#000" d="M108.424 642.648c-.5.866 2.562 9.562 4.794 9.696q1.689.101 30.205-15.364 3.931 4.66 7.678 3.75 4.045-.985 19.581-11.313 9.093 5.483 14.801 5.76 7.523.366 17.893-6.99l.555-1.385.012.008q1.428.88 5.629 2.644 16.278-1.256 23.186 1.84c6.908 3.097 7.625 14.794 11.223 14.562 1.666-.107 7.129-4.215 12.613-8.768l.748-.623.745-.626c5.83-4.918 11.291-9.972 11.786-10.83 1-1.731-14.05-16.354-26.445-22.196q-12.394-5.841-28.882-3.973 3.803-10.78 2.535-12.393-1.267-1.611-9.196 3.929-2.37-.942-3.464-2c-1.095-1.06-.232-3.598-2.464-3.732-.744-.045-4.512 3.296-10.696 6.526a608 608 0 0 1-7.172 3.675l-.84.423-.842.424-.846.426-1.273.638-2.12 1.06-.844.422c-9.267 4.626-17.843 8.855-18.884 9.779-2.366 2.098-4 6.928-5 8.66s-44.516 25.105-45.016 25.971m4.964-.598q38.919-21.409 41.284-23.507 2.367-2.098 5.5-9.526l32.687-14.615 2.732-.732 5.098-2.83q6.735.606 8.794 2.768 2.06 2.16 3.429 10.062 13.136-4.14 25.052.608c11.917 4.748 26.213 18.598 26.079 20.83-.063 1.052-4.16 4.647-8.617 8.194l-.654.518c-4.812 3.795-9.832 7.387-10.523 7.572-1.366.366-4.314-8.81-7.393-11.196q-3.078-2.385-9.66-3.268-19.1-1.056-22.89-1.012h-.019l1.723-4.292q-12.27 11.83-19.527 11.82-7.256-.008-21.784-10.267l-48.981 24.837zm90.449-15.306q-1.068-.684-.327-.79.2-.028.685-.037h.092l-.356.885Zm-29.834-1.689-.01.024c-.033.552 9.94 4.959 15.49 3.17 4.678-1.508 9.587-8.478 11.038-10.984 2.08 1.068 3.621 1.594 3.89 1.127 1-1.732-11.15-6.035-11.856-11.464s10.639-9.181 9.098-9.758-13.836 5.964-15.294 8.49c-1.044 1.808 8.14 8.435 13.813 11.424-1.898 2.032-6.893 7.753-10.555 8.933-4.62 1.489-15.59-1.49-15.624-.938Zm22.65-19.225c-.135.235.338.137 1.108-.066l.725-.193c1.763-.47 4.297-1.083 5.363-.205 1.778 1.464 1.876 8.751 2.197 8.196.32-.555.96-9.43-.697-10.794s-8.26 2.309-8.696 3.062m-19.49 3.758c.197.734 3.887-.065 6.196 1.268 2.31 1.334 6.026 6.438 6.794 6.232.484-.13-.66-2.082-1.948-4l-.268-.396a63 63 0 0 0-1.846-2.568q-1.5-1.965-3.83-3.366-5.296 2.097-5.098 2.83m-5 8.66c4.546 2.626 13.067.588 13.892-.061.826-.65-3.95-.583-9.66-3.268-1.491-.702-.95-4.924-2.464-3.732-1.515 1.191-5.232 5.062-1.768 7.062m-26.819 17.69.66-.36q8.247-4.485 18.56-10.169a114 114 0 0 0 4.366 2.923q-14.602 8.636-17.695 10.165-2.774 1.372-5.891-2.558"/>
<path fill="#fff" d="m307.105 564.522 33.007 24.83-85.56 22.193-13.124-5.267q3.063 8.695-2.634 6.562c-5.696-2.134-12.624-6.134-14.454-12.964s4.235-17.396 10-17.32q5.765.075 19.516 18.195zM221.804 612.268q-7.563-.902-11.428 3.794a36.3 36.3 0 0 0-6 10.392l-7.964 5.795q10.124 10.464 19.686 7.902 9.563-2.563 8.732-11.125.284-6.034-.33-9.428-.613-3.394-2.696-7.33"/>
<path fill="#000" d="m251.955 610.045 4.33 2.5 87.791-22.06-6.928-4zm-25.945-23.062c-5 8.66-3.536 14.125-.206 18.357s13.954 13.83 17.454 7.768-4.917-21.315-5.856-21.857c-.504-.29.797 4.938 1.802 10.12l.135.706c.796 4.227 1.332 8.254.455 9.03-1.996 1.77-9.526-5.5-11.99-9.231-2.464-3.732-1.794-14.893 5.902-16.223s15.552 17.062 20.016 17.33q1.742.106 10.583-5.702l.926-.61q13.928-9.244 44.106-32.015l-2.598-1.5a2658 2658 0 0 1-14.19 9.457l-1.729 1.143q-35.49 23.423-38.062 22.897c-3.098-.634-6.526-10.696-10.856-13.196s-10.892-5.134-15.892 3.526m-30.964 45.632q10.125 10.464 21.418 8.902c8.296-1.148 9.736-8.746 9.566-12.9q.195-.19.352-.388c3.11-3.9 1.19-14.585-3.815-17.794-5.007-3.208-7.564-3.167-15.037 5.71s-5.241 12.324-1.468 14.743c3.168 2.03 13.142 1.527 18.104-.994-1.283 4.166-4.028 10.051-11.166 9.623q-11.16-.67-14.722-8.5zm16.086-14.449c2.36-2.61 7.065-5.956 9.5-4.255s2.93 8.62.538 11.268-10.42 5.32-13.549 3.135 1.153-7.536 3.511-10.148"/>
<path stroke="#000" stroke-linecap="round" stroke-width="2" d="M57.31 452.551c2.222.256 14.01-8.291 20.846-1.202s-5.721 10.596-3.158 11.791 18.114 2.985 21.876 13.322-18.28 14.102-17.595 15.981q.684 1.88 29.818 2.982l-2.989 6.408-20.676-4.18q7.265 11.19 1.713 16.403-5.55 5.214-18.88 3.68 9.829 12.384-4.267 17.515-14.095 5.13-16.233-3.669-7.86 1.796-12.39-1.876c-4.528-3.672 1.366-7.946 1.023-8.885-.342-.94-12.302 1.285-14.354-4.353-2.052-5.639 3.672-4.53 1.962-9.228-1.71-4.699-11.88-18.024-13.421-28.105s4.661-17.556 11.269-27.513 3.071-14.952 17.595-15.982 15.64 16.656 17.861 16.911Z"/>
<path fill="#fff" d="m221.964 516.067-41.098-10.582q-4.15-.231-6.322.173t-7.518 2.736l-48.957-8.786-2.305 8.288q32.127 6.399 32.468 7.338c.17.465-2.158 3.42 1.455 6.92q1.26 1.221 8.63 3.244l14.61 2.132q5.988 11.813 10.855 15.204 4.866 3.39 16.233 3.669 10.77 10.203 14.956 14.776a42.2 42.2 0 0 1 6.923 10.25l-2.131 14.61 31.013.418q-2.565-22.586-7.528-32.378-4.964-9.79-18.887-19.73 2.383-6.021 1.962-9.227-.42-3.206-4.36-9.055"/>
<path fill="#000" d="M116.445 498.071c-.94.342-4.184 8.972-2.56 10.51q1.229 1.162 33.014 7.645.016 6.097 3.472 7.807 3.732 1.848 22.271 3.922 3.442 10.044 7.636 13.926 5.528 5.115 18.2 6.146l1.316-.704.003.014q.529 1.592 2.613 5.644 13.278 9.501 16.579 16.313c3.301 6.812-3.669 16.234-.764 18.37 1.346.988 8.172 1.352 15.299 1.39l.973.003h.974c7.626-.02 15.06-.382 15.99-.72 1.879-.684-.252-21.56-5.991-34.002q-5.74-12.441-19.572-21.61 9.844-5.813 9.909-7.862t-9.57-2.902q-1.21-2.245-1.368-3.76c-.158-1.514 2.135-2.905.511-4.442-.541-.512-5.575-.375-12.388-1.876a608 608 0 0 1-7.857-1.795l-.915-.215-.918-.217-.922-.218-1.385-.329-2.305-.55-.918-.22c-10.072-2.413-19.36-4.685-20.751-4.647-3.161.086-7.518 2.736-9.397 3.42s-50.24-9.383-51.179-9.041m4.187 2.733q43.575 8.616 46.736 8.53t10.337-3.763l34.433 9.815 2.564 1.196 5.724 1.109q4.77 4.793 4.958 7.773t-3.842 9.911q12.725 5.272 18.8 16.57c6.078 11.297 8.126 31.096 6.589 32.72-.724.765-6.174.886-11.868.738l-.834-.024c-6.125-.186-12.28-.661-12.929-.963-1.282-.598 2.36-9.522 1.534-13.329q-.825-3.806-5.3-8.713-13.951-13.086-16.883-15.488l-.015-.013 4.078-2.18q-17.004 1.174-22.556-3.496-5.553-4.671-10.088-21.869l-53.486-12.458zm79.127 46.414q-.379-1.21.256-.815.172.107.55.412l.07.058-.841.45Zm-21.769-20.47-.023.011c-.38.402 4.427 10.188 9.829 12.386 4.552 1.851 12.793-.332 15.516-1.32.906 2.155 1.749 3.55 2.255 3.365 1.88-.684-4.663-11.79-1.713-16.403 2.949-4.613 14.05-.195 13.242-1.628-.81-1.432-14.433-4.324-17.174-3.327-1.961.714.813 11.694 3.238 17.63-2.76.337-10.263 1.508-13.827.059-4.496-1.83-10.985-11.164-11.366-10.762Zm29.709-.168c-.255.092.171.321.89.661l.68.318c1.652.774 3.988 1.932 4.24 3.29.422 2.265-4.187 7.91-3.585 7.691s6.797-6.606 6.405-8.716c-.393-2.11-7.812-3.542-8.63-3.244m-17.346-9.65c-.322.69 3.019 2.449 3.931 4.955.912 2.505.478 8.805 1.199 9.14.454.213.833-2.019 1.08-4.316l.049-.476c.117-1.187.199-2.348.235-3.153q.114-2.47-.77-5.04-5.403-1.798-5.724-1.11m-9.397 3.42c1.795 4.934 9.632 8.85 10.682 8.883s-2.653-2.986-5.3-8.713c-.691-1.496 2.438-4.382.511-4.443-1.926-.06-7.261.515-5.893 4.274m-31.916-3.687.738.148a3807 3807 0 0 0 20.755 4.14q.714 2.677 1.465 5.046-16.737-2.77-20.09-3.587-3.007-.733-2.868-5.747"/>
<path fill="#fff" d="m318.862 565.933 9.325 40.237-79.808-37.995-6.668-12.472q-3.244 8.63-6.236 3.334c-2.992-5.296-5.728-12.814-2.74-19.222 2.989-6.409 14.427-10.604 18.794-6.84q4.368 3.762 3.255 26.484zM222.827 547.678q-5.213-5.551-11.193-4.44a36.3 36.3 0 0 0-11.276 4.105l-9.826-.68q1.03 14.523 10.002 18.707 8.971 4.184 13.84-2.91 4.095-4.44 5.807-7.434t2.646-7.348"/>
<path fill="#000" d="m247.353 565.356 1.71 4.698 81.432 39.533-2.737-7.518zm-5.051-34.344c-9.397 3.42-11.788 8.547-11.957 13.93s1.8 19.564 8.378 17.17c6.577-2.394 9.933-19.489 9.562-20.508-.199-.546-2.564 4.295-5.125 8.91l-.35.628c-2.107 3.75-4.285 7.179-5.456 7.211-2.666.073-3.762-10.337-3.25-14.78.51-4.442 8.198-12.56 14.948-8.633s.947 23.068 4.194 26.142q1.267 1.2 11.773 2.435l1.101.127q16.611 1.871 54.366 3.826l-1.026-2.819a2658 2658 0 0 1-16.949-1.876l-2.06-.237q-42.243-4.869-43.874-6.925c-1.966-2.477 1.876-12.388.166-17.087s-5.044-10.934-14.441-7.514m-53.051 15.052q1.03 14.524 10.685 20.587c7.093 4.454 13.08-.441 15.62-3.733q.27-.02.52-.07c4.889-.99 10.286-10.408 8.513-16.084s-3.758-7.288-15.188-5.292-11.937 6.072-10.601 10.35c1.121 3.592 9.086 9.618 14.507 10.877-3.66 2.366-9.547 5.11-14.739.194q-8.118-7.687-5.814-15.975zm21.61-.727c3.485-.484 9.24-.022 10.012 2.846.772 2.87-3.295 8.487-6.83 8.978s-11.403-2.622-12.395-6.308 5.728-5.032 9.213-5.516"/>
<path fill="#fff" d="M279 660.326q-8-12-35-9t-32 19q11.58-5 24-5c12.42 0 14.265 6.248 25 5q10.735-1.249 18-10"/>
<path fill="#000" d="M290 615.326c27-2 6 36 9 40s5.577 4.34 10 4q4.422-.34 16-6v2q-11.034 10.365-18 10c-6.966-.367-12.38-1.682-15-8-1.048-2.527.662-8.313 2.196-14.346l.229-.906c2.187-8.772 3.695-17.748-4.425-17.748q-14 0-8 35-1 12.999-21 15c-20 2-24-6-34-6s-18.638 15.717-19 13-5-19 17-28q22-9 47-2-9-34 18-36m-16 42c-4-3-21.16-3.806-33-2s-20.972 7.593-24 11c-1.787 2.01 2.942-.152 8.217-2.228l.538-.21.27-.105.541-.208c3.249-1.239 6.512-2.311 8.434-2.25 10.95.353 19.305 6.022 26 5 14.937-2.278 17-6 13-9"/>
<path fill="#fff" d="M322 574.326q3.384 21.15 3 35-.385 13.85-5 37l10 14-5 24 12 4q9.072-15.779 18-21t35-9l31 26 5-7-11-29h-4q.88-33.657-3-49-3.88-15.345-19-38-.104 17.29 1 27 1.103 9.708 4 17-30.75-14.004-47-21t-25-10"/>
<path fill="#fff" d="m337 687.326-12-3q-18.617-4.685-28-3c-9.383 1.684-12.912 8.778-9 12s37.07 2.7 43 0q2.133-.972 6-6M466 672.326c1-4-3.84-5.099-6-5-11.972.547-21.813 5.031-28 7-10.955 3.485-12.947 8.78-9 11s15.865.906 25-2 17-7 18-11"/>
<path fill="#000" d="M358 668.326c-9.676 5.602-18 23-25 26s-39 6-47 1 4.107-14.41 11-16q6.77-1.563 24.357 2.838l.643.162q6-17 4-20c-2-3-7.975-10.164-9-20s3.014-12.237 4-29q.985-16.762 0-39l3 2q4 21.666 4 30c0 20-5.129 27.534-4 36 2 15 9 14 9 18q0 4-7 26-18.068-4.531-27-3c-8.933 1.531-12 7-8 9s34 2 39-1 7.498-14.449 24-26c7.894-5.526 22.646-4.51 35-10 4.864-2.162 9.544-13 11-13 .91 0-.345 3.319-1.993 6.908l-.25.54-.126.27-.256.542-.26.54-.26.536c-.65 1.334-1.3 2.608-1.855 3.664a24 24 0 0 1-1.836 2.985q8.163 5.19 12.836 9.015 5.544 4.536 17 16 18.053-1.675 26-4c7.947-2.326 13.082-4.246 14-7s.307-4.32-11-2q-11.307 2.319-27 9-4.236-6.683-7-13-2.52-5.758-6.261-16.804c-1.126 4.572-2.229 7.512-2.739 7.804-1.564.893 1.422-25.941-2-44q-3.421-18.06-18-48v-9q21.308 31.668 25 53c2.12 12.25.672 25.965-1.241 35.592q4.783 3.82 7.241 8.408 2.65 4.945 7 19 41-12 41-2c0 10-28 22-43 17q-15-5-35-26-22.325 1.398-32 7"/>
<path fill="#fff" d="m304 563.326 48-10q16.803-8.205 25-11c8.197-2.795 19-5 19-4 0 .529-3.224 8.4-7 19q-.984 2.76-2 7l7 41-51-23-44-17q-21.54 7.708-33 10t-32 3q11-10 24-15 13-5.001 35-3z"/>
<path fill="#000" d="M357 551.326c0-2 33-17 39-15s-6 11.898-6 24c0 4.72 1.369 12.755 2.861 20.979l.23 1.266.463 2.532.23 1.26c2.025 11.104 3.806 21.373 2.216 22.963-1.183 1.183-14.75-7.276-32-15a1098 1098 0 0 0-16.558-7.234l-1.694-.724-2.54-1.08-1.69-.717c-17.867-7.558-34.988-14.434-42.053-17.26q-15.342 5.835-32.465 9.015c-18.543 3.443-33 5-35 3s11.38-11.278 19-15q7.62-3.721 24-6l3 2q-15.351 2.94-23 6a69 69 0 0 0-4.67 2.102l-.569.283c-1.044.522-2.09 1.068-3.104 1.617l-.55.3c-5.192 2.85-9.388 5.698-8.107 5.698 1.629 0 13.267-.496 25.585-2.437l.937-.15c2.5-.408 5.019-.877 7.478-1.413q14.91-3.254 21-8 13.833-5.622 35-8c3.598-.405 7.447-.903 11.362-1.431l1.385-.188 1.387-.19q1.39-.19 2.78-.382l1.388-.192c16.873-2.33 32.968-4.537 33.698-1.617 1 4-13.005 1.238-30 4-9.18 1.492-17.687 4.11-33 8q-3.03.77-13.09 2.382c9.894 2.21 26.027 6.593 36.09 10.618 4.353 1.741 9.405 3.987 14.58 6.376l1.245.576.623.29 1.248.581.624.293 1.248.585c13.926 6.55 27.422 13.299 29.432 13.299 3 0-4-14-4-29s11-28 8-30c-1.44-.96-9.792 1.997-18.089 5.11l-1.036.39c-8.625 3.25-16.875 6.5-16.875 5.5"/>
<path fill="#fff" d="M285 338q12.683 14.1 20 23t17 22l-21 19-18-15q-2.36-22.173-2-31t4-18"/>
<path fill="#000" d="M320 385q-13.08-18.036-19-25c-5.92-6.964-13-15-15-15s-2.47 19.182-2 30q.47 10.818 4 16l-7-2q-3.502-23.133-3-32c.502-8.867 2-21 6-21s14.142 11.139 21 19q6.858 7.861 20 28z"/>
<path fill="#fff" d="M230 446.378q-2.015 1.28-5-18.074t-6-53.22l4-9.038q20.3 3.14 35 10.041 14.7 6.902 42 26.108 28.582-23.626 43-32.133 14.419-8.505 37-15.062 11.196 6.567 16 11.046 4.804 4.48 12 15.062 3.466 13.918-5 32.133t-30 43.179q-7.967-1.193-13-3.012-5.033-1.82-12-6.025l2-4.017q-21.49 3.76-38 12.05t-46 30.125l-5 21.087q-45 14.058-66 7.029c-21-7.03-35.921-43.607-38-48.2-2.079-4.592 1.935-3.979 13-7.029q11.065-3.05 37-7.029z"/>
<path fill="#000" d="M322 387.066c-15.356 11.54-36.767 36.972-64 67.132-2.066 2.289-3.285 4.425-4.599 6.414l-.318.474C251 464.152 248.5 466.86 242 469.228c-11 4.008-12.623 4.462-31 4.008q-17.627-.436-48.36-3.723c-.53 4.875 1.457 10.853 6.36 16.748 4.894 5.884 7.845 9.935 11.94 13.434 1.973-4.759 7.053-12.63 16.06-14.436 12.505-2.506 23.03 11.346 33 8.016s-2.28-15.151 9-22.043 22.672 2.81 32-3.006c4.32-2.694 4.566-6.583 4.91-10.762l.049-.572.025-.287.054-.576.052-.492c.474-4.275 1.692-8.703 7.91-12.36 13.336-7.844 23.92 3.93 33-2.004s-1.365-18.46 13-28.056 27.019 1.324 38-6.012-.834-17.91 10-26.051c10.834-8.142 21.473 1.476 22 2.004s-15.886-3.98-20 0 4.138 18.532-9 28.055c-6.341 4.597-12.719 4.229-18.92 3.436l-.744-.097-.371-.05-.892-.12-.445-.06-.888-.118-.819-.104c-5.176-.638-10.192-.85-14.921 2.123-11.57 7.274.575 18.372-13 27.053s-24.075-2.34-34 4.008c-4.132 2.643-4.776 5.786-5.077 9.166l-.042.496-.02.25-.04.525-.055.683-.04.458c-.366 4.059-1.273 8.355-7.726 12.47-13.277 8.465-21.912-1.767-31 4.008-4.294 2.728-4.193 6.842-4.106 10.875l.012.562.009.56.003.455-.002.452c-.04 3.756-.763 7.218-5.916 9.14-11.51 4.29-18.708-7.665-33-6.013-9.163 1.06-14.205 6.248-16.76 9.486 4.105 3.199 9.502 6.027 18.76 9.552 20.109 7.656 59.495-8.037 60-6.012s-33 20.04-60 13.026-48-43.085-48-52.103q0-9.018 50-14.028l4 3.006q-24.13 2.348-35 5.01c-4.393 1.076-7.359 3.738-8.673 7.322q25.807 2.363 38.673 2.698c1.881.049 3.813.122 5.758.205l1.061.045 1.064.047 1.063.048 1.618.072 1.075.048c10.19.446 19.741.71 23.361-1.467 3.046-1.832 12.459-12.245 22.482-23.712l.725-.83.727-.834.729-.836.364-.419.73-.838.728-.84.993-1.143.99-1.143c4.448-5.136 8.793-10.185 12.532-14.494 3.6-4.15 6.275-7.36 8.35-9.945l.469-.586c3.434-4.312 5.146-6.823 6.826-9.157l.337-.464q.28-.386.566-.773l.231-.31q.266-.353.543-.716-21.62-15.356-33.322-21.134c-12.416-6.13-32-13.026-35-12.024s-3.45 8.136-4 16.032q-.55 7.896 9 66.13l-5-5.01q-14.448-57.097-12-68.134c2.448-11.036 8-13.026 12-13.026s26.938 8.054 48 18.036q17.972 8.517 24.203 14.9c4.911-4.257 15.838-11.984 27.237-19.496l1.525-1.002c11.203-7.336 22.62-14.309 29.035-17.447 10.742-5.257 21.4-6.031 23.864-4.872l.136-.138q34 19.037 32 41.08-2 22.044-39 61.121v7.014l-3 3.006v-10.02q28-36.071 34-59.116c6-23.046-24-41.081-25-41.081-6 3.006-34 13.025-58 31.06"/>
<path fill="#fff" d="M312 456q13.947-6.54 22-9t14-2q.577 3.198 4 5t15 5q2 0 6 10l-14 12-8-5-14 13q-14 2-19-5t-6-24"/>
<path fill="#fff" d="M312 456q.728 17.463 6 24.073t18 6.018q-19.925 11.887-27 23.07t-6 29.089q6.145 7.461 14 12.036t17 6.018l-34 7.022q-32.36-8.127-39-24.073t6-55.168q17.568-12.301 30-20.06 12.433-7.76 15-8.025"/>
<path fill="#fff" d="m351 472.04 8 5.017Q372.77 463.34 380 461t11 9.031l5 5.018q9.812 12.144 10 20.069.188 7.923-9 22.075-9.526 13.575-15 19.066-5.473 5.492-14 10.034-21.212 10.047-32 9.031c-10.788-1.014-30-13.044-32-16.055s-1.803-18.27 4-28.096q5.803-9.827 28-25.086 5.045-4.258 8-7.025 2.955-2.766 7-7.024"/>
<path fill="#fff" d="M343 447q-1.507 10.288 0 15 1.508 4.711 8 10-7 8-8 8c-.543 0 2.477-12.154-7-24q-4-5-11-6 9.955-3.492 13-4 3.044-.507 5 1M367 455l6 1v9l-7 5q4.195-4.093 4-7t-3-8"/>
<path fill="#000" d="M356 440c.72.723-.504 1.834-1.852 3.102l-.226.213-.226.215q-.226.216-.446.438l-.216.221c-1.916 2.005-2.974 4.214 2.966 5.838 11 3.008 17 5.013 16 6.016-.703.705-6.361-.304-11.737-1.503l-.714-.16a196 196 0 0 1-5.549-1.345c-4.093-1.06-7.739-3.019-10.593-4.149.073 4.34.206 11.393 2.593 16.18 2.78 5.576 9.397 9.615 11.995 11.24 7.018-7.438 16.012-15.587 21.005-17.256 8.038-2.686 12.088 3.425 13.574 10.476q21.322 16.86 13.426 36.647c-2.927 7.336-16.248 24.744-26 33.086q-8.02 6.86-23 12.031 31-17.044 42-41.107 10.608-23.203-5.752-35.219c.482 8.866-.943 24.01-7.248 31.209q-5.866 6.697-21.327 7.11-3.234 9.883-13.673 8.932c-8.461-.772-13.373-12.815-16.1-18.332l-.228-.457c-.706-1.392-1.254-2.266-1.672-2.266-.899 0-2.403 2.632-3.879 5.53l-.276.547-.137.274-.33.662c-1.528 3.085-2.903 6.02-3.378 6.02-1 0-.462-6.5 2-10.025s9-9.024 10-9.024 4.788 6.294 10 10.026q3.942 2.823 12.218 5.39 18.259 1.309 23.782-4.387c6.138-6.33 8-25.065 7-31.08-.1-.602-.189-1.242-.277-1.902l-.054-.398-.027-.2-.054-.404-.014-.102-.07-.51-.057-.395-.09-.593c-.832-5.276-2.54-10.445-10.357-7.528-5.535 2.065-14.278 10.555-21.07 17.34l-.774.776-1.49 1.493-1.351 1.351c-3.758 3.746-6.315 6.16-6.315 5.108 0-1.312 4.185-6.629 9.65-12.457-1.537-.602-4.141-1.809-6.812-3.395l.162-.19q-11 13.034-25 21.055c-7.096 4.065-16.747 13.426-20 24.062-2.262 7.394-1.298 15.478-.923 19.129l-.077-.08c20 21.055 51 13.035 52 14.037s-26.909 13.737-48-2.005q-20.077-14.985-39.99-60.495-13.227 32.32-5.01 49.466 8.802 18.365 58 23.06l-10 3.008q-33 4.01-49-16.042-15.392-19.29-.245-59.92a139 139 0 0 1-3.678 1.761l-.628.289c-1.05.479-2.107.947-3.147 1.394l-.622.266c-5.983 2.54-11.198 4.285-10.68 3.072.573-1.34 7.695-5.407 14.908-9.527l.76-.434.758-.433.756-.433c3.266-1.87 6.41-3.693 8.818-5.215 13.777-8.702 26.442-17.126 36-22.057 22.917-11.823 48-19.05 50-17.044m-44.839 17.996-.078.04A406 406 0 0 0 309 459.05c-9.63 4.727-23.152 15.611-37.454 24.378q12.958 31.061 30.973 51.138c-1.624-5.332-1.717-14.867 7.481-28.393 5.215-7.669 14.741-13.694 23.547-19.677q-9.132 1.972-16.547-6.39c-4.757-5.565-6.371-17.432-5.839-22.11m47.804 26.116.035.004c.293.073 2.381.53 4 2.005 3.289 2.997 7.189 8.21 8 9.023l.088.089.024.024.01.011-.014-.011c-.192-.18-2.132-2.071-4.083-3.862l-.39-.357c-1.62-1.474-3.167-2.795-3.635-2.912-1.18-.296 4.724 6.741 4 6.016-.288-.29-3.393-2.103-5-4.01-2.427-2.884-3.534-6.15-3-6.016ZM384 474.089c.811 3.051 1.223 8.353 1 9.024q-.223.67-2-6.016-.533 2.991-2 5.013c-.508.7-1.231 1.795-1.972 2.873l-.247.358c-1.318 1.9-2.618 3.6-2.781 2.785-.264-1.326 4.14-7.582 5-11.029s-.984-7.28 0-8.02 2.189 1.962 3 5.012m-44.754-26.072h-.307c-2.925.017-8.139.594-26.225 9.234.902 4.01.571 16.963 7.286 22.854q7.356 6.453 16.403 4.43l.597-.42q4.912-3.455 12.595-11.6c-3.295-2.1-6.455-4.724-7.595-7.449-1.816-4.342-1.115-12.26-.183-16.736-.668-.195-1.275-.308-1.817-.308h-.182q-.274-.004-.572-.005"/>
<path fill="#fff" d="M343 510.009c1.242-1.025 6.133.819 9 3.092s5.242 6.192 4 7.216-6.158-.839-9-3.092-5.242-6.192-4-7.216"/>
<path fill="#000" d="M303 482c-3.348 0-8-5-8-9q0-4 10-14-2 8-2 12c0 4 3.348 11 0 11"/>
<g fill="#000">
<path d="M335.5 476.928c2.63-1.519 1.985-5.623-.5-9.928s-5.87-7.179-8.5-5.66-3.985 7.355-1.5 11.66 7.87 5.447 10.5 3.928M365.5 466.928c2.63-1.519 1.985-5.623-.5-9.928s-6.37-5.519-9-4-3.485 5.695-1 10 7.87 5.447 10.5 3.928"/>
</g>
<path fill="#fff" d="M170 396q35.427 5.385 57 17t34 32l-17 23q-31.005-7.437-47-23t-27-49"/>
<path fill="#fff" d="M195 413q24.52 9.738 41 21t19 20l-6 9q-23.4-7.112-33-16t-21-34"/>
<path fill="#000" d="M227 409q17.86 9.295 37 35l-3 2q-21.403-22.269-40-32c-18.598-9.731-45-17-47-15s9.039 27.476 25 43q15.96 15.524 46 25-.48.81-2 1t-6 0q-29.86-7.065-44-22c-14.14-14.936-30-51-27-53s43.14 6.705 61 16m-33 3c4 0 27 7 41 19q14 12 21 23l-2 3q-21.68-22.14-34-31t-22-10q7.65 19.815 22 32t31 13l-3 4q-24.18-6.587-35-17c-10.821-10.413-23-36-19-36"/>
<g fill="#bfbfbf">
<path d="M989.5 465.516c69.027 0 124.984 55.957 124.984 124.984S1058.527 715.484 989.5 715.484 864.516 659.527 864.516 590.5 920.473 465.516 989.5 465.516c-63.504 0-114.985 55.957-114.985 124.984s51.48 124.984 114.985 124.984c63.504 0 114.985-55.957 114.985-124.984 0-68.336-50.456-123.863-113.084-124.967Z"/>
<path d="M1066.002 514.998c41.975 41.975 41.975 110.03 0 152.004-41.975 41.975-110.03 41.975-152.004 0-41.975-41.975-41.975-110.03 0-152.004 41.975-41.975 110.03-41.975 152.004 0-38.617-38.617-103.95-35.895-145.924 6.08s-44.697 107.307-6.08 145.924 103.95 35.895 145.924-6.08c41.555-41.555 44.639-106.003 7.227-144.758Z"/>
</g>
</g>
</svg>