<svg xmlns="http://www.w3.org/2000/svg" viewBox="0 0 640 123">

<g fill="none">
<path fill="#000" d="M61.06.277c4.292 0 21.9.883 31.936 6.374 9.72 5.302 14.138 10.856 14.138 16.347 0 10.288-9.089 14.138-11.929 16.283 1.262 1.768 4.734 3.156 6.438 3.156 5.427 0 7.889-2.903 7.889-6.059v-3.597c0-.38.252-.632.884-.632h7.384c.442 0 .694.253.694 1.073v4.43c-.02 2.62-1.073 20.311-19.818 20.311-10.035 0-18.682-8.457-22.027-11.676-.883.126-15.526 1.325-18.808 1.325-26.255 0-32.44-1.577-41.403-5.617C7.224 37.83 1.733 31.203 1.733 24.513c0-6.501 3.408-10.92 11.36-16.158 9.783-6.5 25.372-8.078 30.8-8.078Zm111.081 0c1.073 0 1.578.063 1.578.568v10.477c0 .378-.884.568-1.262.568h-12.939v17.04c0 1.831 1.01 6.312 7.953 6.312h16.03c1.074 0 5.555-1.452 5.555-5.743v-17.61H177c-.379 0-.757-.315-.757-.82V.845c0-.253.441-.568.883-.568h42.602c1.136 0 1.767.379 1.767 1.704v9.088c0 .505-.315.82-.82.82h-14.453V30.95c0 2.462-.631 16.662-17.167 16.662h-41.322c-3.7-.026-20.34-1.394-20.34-14.516V11.89h-14.265c-.568 0-1.01-.253-1.01-1.01V1.16c0-.441.316-.883.758-.883ZM46.481 27.542c-2.84 0-4.797.631-4.797 2.84 0 5.491 12.75 5.807 15.021 5.807 1.957 0 6.754-1.01 8.016-1.641-8.142-5.68-14.643-7.006-18.24-7.006m6.753-15.526c-12.749 0-14.769 8.584-14.769 10.982 0 2.588.631 3.471.884 3.85 1.073-1.2 3.66-5.744 12.181-5.744 9.215 0 18.24 6.06 18.745 6.438.19-.442.505-1.704.505-2.84 0-8.457-7.89-12.686-17.546-12.686m170.913-.505c0 .379.505.631 1.2.631h13.948v23.542h-14.327c-.379 0-.82.315-.82 1.199v9.846c0 .442.315.883 1.325.883h61.6c.82 0 .946-.315.946-1.072V36.504c0-.441-.316-.694-.947-.694h-14.327V12.205h14.327c.505 0 .947-.252.947-.883V.845c0-.442-.758-.568-1.326-.568h-61.536c-.568 0-1.01.379-1.01 1.199zm146.425 15.274c-.568 0-.947.063-1.199.442-1.641 2.524-7.763 8.646-21.459 8.646-17.04 0-18.555-9.404-18.555-12.18 0-3.535 2.84-11.488 16.599-11.488 13.695 0 18.113 7.89 18.555 8.458.505.568.631.568 1.2.568h19.88c.758-.127.947-.505.947-1.136V2.107c0-1.136-.442-1.388-1.2-1.388h-20.637c-.316 0-.758.441-.82 1.136l-.443 4.165c-6.5-3.534-14.137-5.743-26.57-5.743-34.335 0-44.749 13.948-44.749 24.551 0 10.667 10.035 22.784 50.302 22.784 39.131 0 42.792-17.86 43.801-19.817.316-.632-.315-1.01-.883-1.01zm20.639 8.899c-.505 0-.947.505-.947 1.262v9.089c0 1.136.442 1.577 1.073 1.577h49.418c1.073 0 1.515-.441 1.515-1.072v-9.594c0-.631-.126-1.262-.947-1.262h-3.408v-2.777l7.069-3.156 5.617 5.933h-4.418c-.884 0-1.389.505-1.389.947v9.277c0 1.073.505 1.704 1.263 1.704h60.021c1.389 0 1.704-.757 1.704-1.262v-9.214c0-.947-.441-1.452-1.199-1.452h-14.58l-16.787-17.23 13.758-6.249h14.138c.947 0 1.578-.63 1.578-1.262V2.17c0-1.578-.631-1.893-1.578-1.893h-50.491c-1.578 0-1.894.631-1.894 1.262v9.089c0 1.514.505 1.577 1.452 1.577h13.443v.127L437.915 24.26V12.205h7.952c1.704 0 2.399-.315 2.399-.946V2.17c0-1.578-.631-1.893-1.452-1.893h-54.972c-1.136 0-1.578.631-1.578 1.388v9.278c0 .947.63 1.262 1.262 1.262h14.075v23.479zM556.96 6.367c-6.964 0-11.634 1.851-13.465 3.597-1.073 1.031-2.209 2.462-2.209 4.06 0 1.22.547 3.156 2.399 4.524 2.398 1.746 5.974 3.597 14.6 3.597h3.808c10.519 0 14.874-4.502 14.874-8.352 0-3.766-6.143-7.426-15.842-7.426zm2.082 3.66c3.535 0 5.639 2.504 5.639 4.376 0 1.894-1.894 4.082-5.407 4.082-3.114 0-5.512-2.188-5.512-4.44 0-2.124 2.587-4.018 5.28-4.018m19.818-3.66c-.315 0-.526.105-.526.315v3.282c0 .316.21.379.358.379h4.712v7.826h-4.565c-.42 0-.526.21-.526.379v3.177c0 .273.105.42.316.42h15.337c.252 0 .42-.147.42-.463v-3.197c0-.21-.273-.316-.526-.316h-4.86v-6.206l11.845 10.035c.147.126.379.147.526.147h12.96c.273 0 .378-.21.378-.568V10.343h4.481c.274 0 .484-.105.484-.379V6.893c0-.21-.084-.526-.463-.526h-15.021c-.147 0-.295.21-.295.463v3.24c0 .168.169.273.484.273h4.629v5.428l-10.814-9.152c-.21-.147-.442-.252-.652-.252zM545.6 37.097v-8.099h6.038v2.756c0 .253.105.253.231.253h6.775c.189 0 .252-.19.252-.337v-5.975c0-.463-.147-.505-.379-.505h-36.795c-.147 0-.253.148-.253.295v6.206c0 .168.148.274.337.274h7.027c.126 0 .294 0 .294-.148v-2.819h5.638v8.1h-5.028c-.126 0-.231.168-.231.273v3.303c0 .21.147.295.231.295h21.06c.189 0 .315-.021.315-.126v-3.619c0-.105-.126-.126-.316-.126zm14.264-11.907c-.147 0-.232.148-.232.295v3.198c0 .273.127.357.316.357h4.88v7.91h-4.859c-.126 0-.231.148-.231.253v3.471c0 .21.126.295.231.295h19.776c.147 0 .315-.084.315-.232v-3.576c0-.126-.084-.21-.21-.21h-4.355v-2.273h10.014v2.273h-4.355c-.147 0-.252.084-.252.231v3.43c0 .273.105.357.336.357h19.755c.295 0 .442-.084.442-.337v-3.26c0-.38-.273-.421-.589-.421h-4.502v-7.91h4.65c.273 0 .336-.274.336-.421V25.61c0-.273-.21-.42-.42-.42h-19.566a.413.413 0 0 0-.442.42v3.177c0 .19.147.252.358.252h4.25v2.21h-10.015v-2.21h4.04c.315 0 .525-.063.525-.273v-3.24c0-.19-.105-.337-.357-.337zm42.917 0c-.315 0-.525.084-.525.19v3.597c0 .253.126.21.294.21h4.797v7.869h-4.776c-.19 0-.315.168-.315.357v3.324c0 .253.252.232.525.232h35.681c.4 0 .484-.147.484-.295v-6.206c0-.294-.084-.4-.232-.4h-7.7c-.336 0-.4.232-.4.421v2.567h-12.327V34.93h6.563c.253 0 .505-.042.505-.21v-3.303c0-.169-.084-.21-.294-.21h-6.774v-2h12.16v2.651c0 .148.126.148.273.148h7.237c.21 0 .274-.148.274-.358v-5.996c0-.315-.106-.463-.484-.463zm-581.99 82.935H2.393c-1.672 0-1.84 1.577-1.84 2.823v9.882c0 2.077 1.84 2.077 3.513 2.077h83.792c18.732 0 62.635-4.65 62.635-31.225 0-26.658-54.523-31.06-58.454-31.06H2.226c-1.338 0-1.672.997-1.672 1.662v11.958c0 1.163 1.003.997 1.756.997h18.48zm42.565-32.886h19.568c4.098 0 19.903 4.733 19.903 16.443 0 11.21-14.467 16.443-24.084 16.443H63.356zm93.827-14.616c-.585 0-.92.581-.92 1.162v12.54c0 1.08.502 1.246 1.255 1.246h18.565v31.557H157.6c-.501 0-.92.581-.92.997v13.619c0 .83.502 1.163.92 1.163h80.866c.752 0 1.254-.083 1.254-.499v-14.283c0-.416-.502-.499-1.254-.499h-19.485v-9.052h21.074c1.923 0 10.286.333 12.962 6.81.836 1.993 2.676 8.47 3.93 10.547 1.254 2.325 6.355 6.976 11.791 6.976h33.2c6.104 0 19.233-6.478 19.233-15.364v-8.969c0-.996-.335-1.328-.92-1.328h-9.868c-.836 0-1.17.332-1.17.83v2.325c0 5.481-4.683 6.976-6.44 6.976-1.338 0-2.09-1.08-2.676-2.657-2.508-8.554-6.69-10.38-13.296-13.537 8.195-3.155 16.725-7.806 16.725-14.034 0-6.727-7.61-10.962-12.795-13.038-7.275-2.907-25.338-3.488-27.512-3.488zm89.312 15.28c1.421 0 10.035.997 10.035 4.9 0 3.239-6.607 4.401-12.042 4.401h-25.506v-9.3zm169.508-15.28c1.672 0 2.676.913 3.094 1.744l33.7 45.924h18.482c1.316 0 1.414 1.281 1.42 2.46l.001 10.827c0 .996-.836 1.329-2.341 1.329h-80.364c-1.254 0-1.923-.748-1.923-1.578v-12.125c0-.747.502-1.246 1.338-1.246h14.133l-4.934-7.141h-25.924l-4.934 7.141h15.638c.92 0 1.338.499 1.338.997v12.374c0 .996-.335 1.578-1.17 1.578H326.69c-1.923 0-3.345-.167-3.345-1.33v-12.705c0-.914.418-1.412 1.673-1.412h17.143l32.446-45.093c.837-1.246 1.924-1.744 2.927-1.744Zm100.35 0c.92 0 1.672.166 1.672 1.162V74.99c0 .498-.418.913-1.17.913h-5.102l8.78 11.71 8.029-11.71h-6.021c-.502 0-1.17 0-1.17-.498V61.952c0-.83.585-1.33 2.424-1.33h57.283c.753 0 1.506.333 1.506 1.247v13.12c0 .499-.418.914-1.171.914h-5.018l8.447 11.71 8.362-11.71h-6.02c-.503 0-1.255-.332-1.255-.83V61.785c0-.83.752-1.162 2.592-1.162h49.172c1.17 0 1.421.581 1.421 1.246v13.287c0 .415-.418.747-1.087.747h-18.816l-32.78 46.173c-.335.498-.586.83-1.004.83h-21.743c-.334 0-.501-.332-.836-.747L541.44 94.422l-21.073 27.986c-.418.416-.67.499-1.506.499h-21.073c-.585 0-.753-.416-1.087-.748l-32.865-46.256h-17.394c-.669 0-1.421-.249-1.421-1.246V61.785c0-.58.501-1.162 1.17-1.162ZM386.399 83.377c-.25-.249-1.087-.249-1.254 0l-7.108 9.8h14.885Zm134.016-39.086H640v3.321H520.415Zm0-44.291H640v3.322H520.415Z"/>
</g>
</svg>
